<svg xmlns="http://www.w3.org/2000/svg" xmlns:xlink="http://www.w3.org/1999/xlink" width="657.359" height="546.029" viewBox="0 0 657.359 546.029">
  <defs>
    <style>
      .cls-1, .cls-4, .cls-5 {
        fill: #fff;
      }

      .cls-1, .cls-10, .cls-11, .cls-12, .cls-16, .cls-17, .cls-20 {
        stroke: #263238;
      }

      .cls-1, .cls-10, .cls-11, .cls-12, .cls-16, .cls-17, .cls-20, .cls-9 {
        stroke-linecap: round;
        stroke-linejoin: round;
      }

      .cls-1, .cls-12, .cls-16, .cls-17 {
        stroke-width: 0.827px;
      }

      .cls-11, .cls-16, .cls-2, .cls-9 {
        fill: none;
      }

      .cls-12, .cls-20, .cls-3 {
        fill: #8167f2;
      }

      .cls-4 {
        opacity: 0.8;
      }

      .cls-6 {
        fill: #64b4d2;
      }

      .cls-17, .cls-7 {
        fill: #263238;
      }

      .cls-8 {
        opacity: 0.5;
      }

      .cls-9 {
        stroke: #fff;
      }

      .cls-10, .cls-11, .cls-9 {
        stroke-width: 0.62px;
      }

      .cls-10 {
        fill: #8d3ddc;
      }

      .cls-13 {
        clip-path: url(#clip-path);
      }

      .cls-14 {
        clip-path: url(#clip-path-2);
      }

      .cls-15 {
        fill: #92e3a9;
      }

      .cls-18 {
        clip-path: url(#clip-path-3);
      }

      .cls-19 {
        clip-path: url(#clip-path-4);
      }

      .cls-20 {
        stroke-width: 0.829px;
      }
    </style>
    <clipPath id="clip-path">
      <rect id="Rectangle_1023" data-name="Rectangle 1023" class="cls-1" width="165.761" height="203.748" transform="translate(0 11.331) rotate(-3.92)"/>
    </clipPath>
    <clipPath id="clip-path-2">
      <rect id="Rectangle_1022" data-name="Rectangle 1022" class="cls-2" width="165.761" height="203.748" transform="translate(0 11.331) rotate(-3.92)"/>
    </clipPath>
    <clipPath id="clip-path-3">
      <rect id="Rectangle_1064" data-name="Rectangle 1064" class="cls-1" width="181.871" height="37.987" transform="translate(0 12.433) rotate(-3.92)"/>
    </clipPath>
    <clipPath id="clip-path-4">
      <rect id="Rectangle_1063" data-name="Rectangle 1063" class="cls-2" width="181.871" height="37.987" transform="translate(0 12.433) rotate(-3.92)"/>
    </clipPath>
  </defs>
  <g id="Gift-bro" transform="translate(-62.864 -90.629)">
    <g id="freepik--background-simple--inject-12" transform="translate(62.864 90.629)">
      <path id="Path_3285" data-name="Path 3285" class="cls-3" d="M661.429,297.193c-12.294-47.121-32.807-91.048-54.149-121.179C555.86,103.6,436.339,71.723,353.682,102.061c-70.4,25.9-94.968,104.015-156.524,141.433-56.566,34.534-107.9,62.523-127.688,128.154C27.685,510.318,192.946,620.86,316.386,585.757c38.988-11.1,71.934-34.447,113.512-34.534,84.348-.294,114.047,11.275,182.286-34.275C679.525,471.916,682.978,379.625,661.429,297.193Z" transform="translate(-62.864 -90.629)"/>
      <path id="Path_3286" data-name="Path 3286" class="cls-4" d="M661.429,297.193c-12.294-47.121-32.807-91.048-54.149-121.179C555.86,103.6,436.339,71.723,353.682,102.061c-70.4,25.9-94.968,104.015-156.524,141.433-56.566,34.534-107.9,62.523-127.688,128.154C27.685,510.318,192.946,620.86,316.386,585.757c38.988-11.1,71.934-34.447,113.512-34.534,84.348-.294,114.047,11.275,182.286-34.275C679.525,471.916,682.978,379.625,661.429,297.193Z" transform="translate(-62.864 -90.629)"/>
      <path id="Path_3287" data-name="Path 3287" class="cls-5" d="M398.738,142.033c-6.907-3.73-9.946-.622-12.432-3.73s6.907-11.189-11.828-19.27c0,0-1.243-17.4-26.729-18.027s-18.648,17.4-25.486,21.756-8.633-2.486-15.54,1.865-3.73,13.054-9.324,14.3-13.054-5.594-19.891-1.243-6.907,8.081-9.946,8.081-9.324-2.486-13.054,0-8.1,5.612-8.1,5.612H403.728S405.576,145.762,398.738,142.033Z" transform="translate(70.516 -83.1)"/>
      <path id="Path_3288" data-name="Path 3288" class="cls-5" d="M399.415,297.63c-6.907-3.73-9.963-.622-12.449-3.73s6.907-11.206-11.811-19.287c0,0-1.243-17.4-26.729-18.027s-18.6,17.4-25.5,21.756-8.633-2.486-15.54,1.865-3.73,13.071-9.324,14.314-13.054-5.594-19.891-1.243-6.907,8.081-9.946,8.081-9.341-2.486-13.071,0-8.081,5.594-8.081,5.594H404.388S406.253,301.359,399.415,297.63Z" transform="translate(70.996 29.957)"/>
      <path id="Path_3289" data-name="Path 3289" class="cls-5" d="M436.689,229.346c-4.714-2.573-6.907-.432-8.633-2.573s4.731-7.736-8.167-13.313c0,0-.846-12.087-18.458-12.467s-12.881,12.087-17.612,15.039-6.009-1.727-10.74,1.3-2.573,9.013-6.441,9.877-9.013-3.868-13.813-.863-4.714,5.577-6.907,5.577-6.441-1.727-9.013,0-5.594,3.868-5.594,3.868H439.97S441.421,231.918,436.689,229.346Z" transform="translate(132.212 -10.436)"/>
      <path id="Path_3290" data-name="Path 3290" class="cls-5" d="M382.542,210.812c-2.97-1.623-4.317-.276-5.4-1.623s2.97-4.852-5.18-8.357c0,0-.535-7.563-11.6-7.839s-8.1,7.563-11.068,9.445-3.781-1.071-6.751.812-1.623,5.681-4.058,6.216-5.664-2.435-8.633-.535-2.97,3.453-4.317,3.453-4.04-1.088-5.664,0-3.453,2.435-3.453,2.435h68.359A3.453,3.453,0,0,0,382.542,210.812Z" transform="translate(121.384 -16.249)"/>
      <path id="Path_3291" data-name="Path 3291" class="cls-5" d="M356.064,255.6c-12.6-6.907-18.32-1.14-22.913-6.907s12.6-20.6-21.756-35.483c0,0-2.279-32.064-49.228-33.2s-34.344,32.047-46.948,40.076-16.024-4.593-28.628,3.453-6.907,24.053-17.18,26.349-24.035-10.36-36.64-2.3-12.588,14.884-18.32,14.884-17.163-4.576-24.035,0-14.884,10.36-14.884,10.36H365.285S368.721,262.468,356.064,255.6Z" transform="translate(-53.659 -25.705)"/>
    </g>
    <g id="freepik--Floor--inject-12" transform="translate(63.583 603.766)">
      <path id="Path_3292" data-name="Path 3292" class="cls-6" d="M703.206,387.81c-6.527,0-6.527,6.717-13.054,6.717s-6.527-6.717-13.054-6.717-6.527,6.717-13.054,6.717-6.527-6.717-13.054-6.717-6.527,6.717-13.054,6.717-6.527-6.717-13.054-6.717-6.527,6.717-13.054,6.717-6.527-6.717-13.054-6.717-6.51,6.717-13.036,6.717-6.527-6.717-13.054-6.717-6.527,6.717-13.054,6.717-6.527-6.717-13.036-6.717-6.527,6.717-13.054,6.717-6.527-6.717-13.036-6.717-6.527,6.717-13.054,6.717-6.527-6.717-13.036-6.717-6.527,6.717-13.054,6.717-6.527-6.717-13.036-6.717-6.527,6.717-13.054,6.717-6.51-6.717-13.036-6.717-6.527,6.717-13.054,6.717-6.527-6.717-13.054-6.717-6.51,6.717-13.036,6.717-6.527-6.717-13.054-6.717-6.527,6.717-13.054,6.717-6.51-6.717-13.036-6.717-6.527,6.717-13.054,6.717-6.527-6.717-13.036-6.717-6.527,6.717-13.054,6.717-6.527-6.717-13.054-6.717-6.51,6.717-13.036,6.717-6.527-6.717-13.054-6.717-6.527,6.717-13.036,6.717-6.527-6.717-13.054-6.717-6.527,6.717-13.036,6.717-6.527-6.717-13.054-6.717-6.527,6.717-13.036,6.717-6.527-6.717-13.054-6.717-6.527,6.717-13.054,6.717-6.51-6.717-13.036-6.717-6.527,6.717-13.036,6.717-6.527-6.717-13.054-6.717-6.527,6.717-13.054,6.717-6.51-6.717-13.036-6.717-6.527,6.717-13.036,6.717-6.527-6.717-13.054-6.717-6.527,6.717-13.036,6.717-6.527-6.717-13.054-6.717-6.51,6.717-13.036,6.717H63.28v22.447H714.429v-22.62C709.681,393.18,709.042,387.81,703.206,387.81Z" transform="translate(-63.28 -387.81)"/>
      <rect id="Rectangle_924" data-name="Rectangle 924" class="cls-7" width="651.149" height="11.033" transform="translate(0 21.86)"/>
    </g>
    <g id="freepik--Plants--inject-12" transform="translate(400.823 409.589)">
      <path id="Path_3293" data-name="Path 3293" class="cls-6" d="M338.432,310.814s9.255-7.3,11.638-12c2.02-4.006,3.453-9.652,1.4-13.917a7.96,7.96,0,0,0-11.275-3.609c-5.7,3.54-6.3,15.644-4.852,21.463C335.463,303.251,338.329,310.935,338.432,310.814Z" transform="translate(-203.305 -271.831)"/>
      <path id="Path_3294" data-name="Path 3294" class="cls-6" d="M290.826,343.76c.38.345,6.907,5.18,7.028,5.025s3.678-11.206,3.073-16.438c-.518-4.455-2.417-9.963-6.51-12.363a7.926,7.926,0,0,0-11.379,3.194C280.224,329.273,286.389,339.7,290.826,343.76Z" transform="translate(-241.342 -243.825)"/>
      <path id="Path_3295" data-name="Path 3295" class="cls-6" d="M413.853,304.35s-33.947,35-33.722,78.011,34.4,77.7,34.4,77.7,33.912-35,33.722-77.994S413.853,304.35,413.853,304.35Z" transform="translate(-170.272 -254.282)"/>
      <path id="Path_3296" data-name="Path 3296" class="cls-6" d="M453.825,429.178a13.237,13.237,0,0,0,1.226-1.537c2.469-3.747,4.558-9.186,2.987-13.658a7.943,7.943,0,0,0-10.774-4.887c-4.61,2.176-6.907,9.566-7.356,15.54-1.83-.414-3.453-.725-4.9-.967-.622-1.364-1.226-2.745-1.848-4.144s-1.14-2.866-1.727-4.317c-.812-2.158-1.537-4.4-2.279-6.648,2.694-1.209,10.5-4.852,13.416-8.081s5.905-8.392,5.007-13.036a7.925,7.925,0,0,0-9.894-6.458c-6.441,1.9-10.239,13.416-10.36,19.408,0,.19.086,1.468.224,2.97-.639-2.21-1.295-4.42-1.882-6.7C423.936,390.224,422.52,383.611,421,377c-.311-1.381-.656-2.745-.967-4.127,2.262-1,10.757-4.886,13.813-8.254s5.905-8.392,5.007-13.036a7.943,7.943,0,0,0-9.911-6.458c-6.423,1.917-10.222,13.416-10.36,19.408,0,.224.121,1.727.276,3.453-.881-3.591-1.727-7.148-2.815-10.654a141.684,141.684,0,0,0-6.337-17.681c.812-.345,10.861-4.7,14.245-8.443,3-3.315,5.905-8.392,5.025-13.036a7.943,7.943,0,0,0-9.911-6.458c-6.44,1.917-10.222,13.416-10.36,19.408,0,.432.5,5.905.742,7.856a.244.244,0,0,0-.086-.19,103.8,103.8,0,0,0-9.238-15.954,139.38,139.38,0,0,0-10.187-12.95c-3.332-3.851-6.63-7.166-9.566-10.084-1.606-1.571-3.108-2.97-4.507-4.265H376c.121,0-3.143-7.494-3.453-7.943-3-5.18-11.862-13.451-18.441-12.087a7.96,7.96,0,0,0-5.56,10.446c1.468,4.507,6.458,7.546,10.688,9.013s13.813.777,16.179.57c1.433,1.364,2.953,2.849,4.593,4.524,2.866,2.97,6.078,6.354,9.324,10.256.863,1.036,1.727,2.193,2.642,3.3-1.882-1.554-4.472-3.643-4.748-3.816-5.059-3.212-16.732-6.458-21.912-2.176a7.96,7.96,0,0,0-.121,11.828c3.367,3.333,9.2,3.73,13.641,3.073s12.881-5.836,14.677-6.993c1.917,2.469,3.833,5.059,5.664,7.856a101.88,101.88,0,0,1,8.771,15.955c.138.311.242.673.38.984-.794-.915-5.508-5.681-5.888-5.974-4.679-3.764-15.92-8.271-21.532-4.576a7.96,7.96,0,0,0-1.416,11.759c2.987,3.661,8.737,4.7,13.209,4.541,5.18-.19,15.333-5.318,15.713-5.508a139.015,139.015,0,0,1,5.733,17.267c1.157,4.334,2.158,8.754,3.108,13.226-1.053-1.191-5.439-5.612-5.8-5.888-4.662-3.764-15.92-8.271-21.514-4.576a7.943,7.943,0,0,0-1.433,11.741c2.987,3.678,8.737,4.714,13.209,4.558,5.042-.19,14.8-5.059,15.626-5.474.432,2.037.881,4.058,1.295,6.078,1.364,6.648,2.711,13.313,4.248,19.84.518,2.262,1.122,4.472,1.727,6.7-1.64-1.727-4.7-4.8-4.99-5.025-4.679-3.764-15.92-8.271-21.532-4.576a7.943,7.943,0,0,0-1.433,11.741c3,3.678,8.754,4.714,13.226,4.558s12.795-4.092,15.108-5.18c1.019,3.678,2.107,7.3,3.367,10.826.57,1.5,1.053,3.091,1.727,4.507l.95,2.245-1.3-.121s-.086,2.107.1,5.508c-4.938-3.453-12.087-6.544-16.68-4.42a7.96,7.96,0,0,0-3.194,11.4A10.823,10.823,0,0,0,411,436.93a31.08,31.08,0,0,0,6.371,14.211c.259.276,3.626,3.453,5.37,4.921-1.727-.915-3.453-1.83-5.18-2.815-2.5-1.381-5.18-2.953-7.667-4.438l-3.833-2.486c-1.347-.812-2.521-1.727-3.816-2.642-1.865-1.347-3.712-2.832-5.577-4.3,1.589-2.486,6.078-9.842,6.734-14.124s.294-10.257-3-13.658a7.96,7.96,0,0,0-11.828.086c-4.317,5.18-1.122,16.835,2.072,21.912.1.155.881,1.157,1.83,2.348-1.727-1.5-3.54-2.987-5.266-4.558-4.938-4.455-9.825-9.134-14.746-13.813l-3.091-2.97c1.33-2.072,6.268-10,6.907-14.5s.294-10.257-3-13.641a7.943,7.943,0,0,0-11.828,0c-4.317,5.18-1.122,16.835,2.072,21.912.1.19,1.053,1.381,2.124,2.711-2.711-2.5-5.439-4.973-8.219-7.338A141.853,141.853,0,0,0,342.385,392.5c.483-.742,6.458-9.911,7.217-14.9.673-4.438.311-10.257-3-13.658a7.96,7.96,0,0,0-11.828,0c-4.317,5.18-1.122,16.835,2.072,21.912.224.345,3.661,4.645,4.956,6.147l-.19-.121a103.29,103.29,0,0,0-16.49-8.219,142.516,142.516,0,0,0-15.644-5.18c-4.921-1.364-9.5-2.314-13.555-3.125-2.193-.414-4.213-.76-6.112-1.07h.121c.086,0-6.751-4.524-7.217-4.748-5.37-2.659-17.267-4.662-22.015.138a7.943,7.943,0,0,0,1.122,11.776c3.712,2.953,9.549,2.745,13.813,1.623s11.949-6.907,13.813-8.443c1.951.345,4.04.742,6.337,1.243,4.04.9,8.633,1.934,13.434,3.453,1.3.4,2.676.863,4.023,1.295-2.417-.259-5.733-.57-6.061-.553-5.992.1-17.526,3.833-19.477,10.257a7.96,7.96,0,0,0,6.423,9.946c4.645.915,9.739-1.968,13.071-4.956s7.528-11.983,8.392-13.934c2.953,1,5.974,2.107,9.065,3.453a103.074,103.074,0,0,1,16.11,8.443l.863.639c-1.174-.345-7.736-1.727-8.2-1.727-5.974-.553-17.837,1.9-20.478,8.081a7.96,7.96,0,0,0,5.284,10.585c4.524,1.4,9.894-.9,13.537-3.453,4.2-3,9.842-12.881,10.049-13.261a140.241,140.241,0,0,1,14.3,11.206c3.35,2.97,6.63,6.13,9.894,9.324-1.537-.414-7.632-1.727-8.1-1.727-5.957-.553-17.837,1.9-20.461,8.081a7.96,7.96,0,0,0,5.284,10.585c4.524,1.4,9.894-.9,13.537-3.453,4.092-2.935,9.549-12.38,10-13.175,1.485,1.45,2.97,2.884,4.438,4.351,4.817,4.783,9.6,9.6,14.487,14.211,1.727,1.589,3.453,3.108,5.18,4.628-2.314-.535-6.561-1.416-6.907-1.45-5.974-.553-17.837,1.9-20.478,8.081a7.96,7.96,0,0,0,5.284,10.585c4.524,1.4,9.894-.9,13.537-3.453s8.426-10.464,9.721-12.691c2.884,2.5,5.8,4.938,8.789,7.183,1.3.95,2.573,1.986,3.885,2.832l3.851,2.573c2.694,1.727,5.18,3.229,7.753,4.714,1.278.76,2.5,1.45,3.764,2.176-2.279-.881-5.905-2.227-6.233-2.314-5.836-1.45-17.923-.829-21.463,4.869a7.943,7.943,0,0,0,3.609,11.258c4.265,2.089,9.911.622,13.917-1.4,4.4-2.227,11.034-10.446,11.845-11.448,3.073,1.727,6.1,3.453,8.944,4.956,7.615,4.075,14.262,7.321,19.408,9.739,16.749,14.487,40.318,16.075,40.318,16.075s1.243-28.231-15.385-46.81a58.274,58.274,0,0,0-20.7-14.47ZM423.9,456.718c.535-1.157,4.541-10.136,4.817-15.195.932-.173,1.882-.363,2.78-.57a65.614,65.614,0,0,0,10.36,24.847c-3.039-1.433-6.337-3.039-9.842-4.817-2.573-1.33-5.232-2.763-8.115-4.265Z" transform="translate(-258.591 -275.353)"/>
      <path id="Path_3297" data-name="Path 3297" class="cls-6" d="M469.557,361.31s-28.248.881-45.55,18.838-17.077,46.241-17.077,46.241,28.248-.863,45.55-18.838S469.557,361.31,469.557,361.31Z" transform="translate(-150.797 -212.89)"/>
      <g id="Group_8296" data-name="Group 8296" class="cls-8" transform="translate(0)">
        <path id="Path_3298" data-name="Path 3298" class="cls-5" d="M338.432,310.814s9.255-7.3,11.638-12c2.02-4.006,3.453-9.652,1.4-13.917a7.96,7.96,0,0,0-11.275-3.609c-5.7,3.54-6.3,15.644-4.852,21.463C335.463,303.251,338.329,310.935,338.432,310.814Z" transform="translate(-203.305 -271.831)"/>
        <path id="Path_3299" data-name="Path 3299" class="cls-5" d="M290.826,343.76c.38.345,6.907,5.18,7.028,5.025s3.678-11.206,3.073-16.438c-.518-4.455-2.417-9.963-6.51-12.363a7.926,7.926,0,0,0-11.379,3.194C280.224,329.273,286.389,339.7,290.826,343.76Z" transform="translate(-241.342 -243.825)"/>
        <path id="Path_3300" data-name="Path 3300" class="cls-5" d="M413.853,304.35s-33.947,35-33.722,78.011,34.4,77.7,34.4,77.7,33.912-35,33.722-77.994S413.853,304.35,413.853,304.35Z" transform="translate(-170.272 -254.282)"/>
        <path id="Path_3301" data-name="Path 3301" class="cls-5" d="M453.825,429.178a13.237,13.237,0,0,0,1.226-1.537c2.469-3.747,4.558-9.186,2.987-13.658a7.943,7.943,0,0,0-10.774-4.887c-4.61,2.176-6.907,9.566-7.356,15.54-1.83-.414-3.453-.725-4.9-.967-.622-1.364-1.226-2.745-1.848-4.144s-1.14-2.866-1.727-4.317c-.812-2.158-1.537-4.4-2.279-6.648,2.694-1.209,10.5-4.852,13.416-8.081s5.905-8.392,5.007-13.036a7.925,7.925,0,0,0-9.894-6.458c-6.441,1.9-10.239,13.416-10.36,19.408,0,.19.086,1.468.224,2.97-.639-2.21-1.295-4.42-1.882-6.7C423.936,390.224,422.52,383.611,421,377c-.311-1.381-.656-2.745-.967-4.127,2.262-1,10.757-4.886,13.813-8.254s5.905-8.392,5.007-13.036a7.943,7.943,0,0,0-9.911-6.458c-6.423,1.917-10.222,13.416-10.36,19.408,0,.224.121,1.727.276,3.453-.881-3.591-1.727-7.148-2.815-10.654a141.684,141.684,0,0,0-6.337-17.681c.812-.345,10.861-4.7,14.245-8.443,3-3.315,5.905-8.392,5.025-13.036a7.943,7.943,0,0,0-9.911-6.458c-6.44,1.917-10.222,13.416-10.36,19.408,0,.432.5,5.905.742,7.856a.244.244,0,0,0-.086-.19,103.8,103.8,0,0,0-9.238-15.954,139.38,139.38,0,0,0-10.187-12.95c-3.332-3.851-6.63-7.166-9.566-10.084-1.606-1.571-3.108-2.97-4.507-4.265H376c.121,0-3.143-7.494-3.453-7.943-3-5.18-11.862-13.451-18.441-12.087a7.96,7.96,0,0,0-5.56,10.446c1.468,4.507,6.458,7.546,10.688,9.013s13.813.777,16.179.57c1.433,1.364,2.953,2.849,4.593,4.524,2.866,2.97,6.078,6.354,9.324,10.256.863,1.036,1.727,2.193,2.642,3.3-1.882-1.554-4.472-3.643-4.748-3.816-5.059-3.212-16.732-6.458-21.912-2.176a7.96,7.96,0,0,0-.121,11.828c3.367,3.333,9.2,3.73,13.641,3.073s12.881-5.836,14.677-6.993c1.917,2.469,3.833,5.059,5.664,7.856a101.88,101.88,0,0,1,8.771,15.955c.138.311.242.673.38.984-.794-.915-5.508-5.681-5.888-5.974-4.679-3.764-15.92-8.271-21.532-4.576a7.96,7.96,0,0,0-1.416,11.759c2.987,3.661,8.737,4.7,13.209,4.541,5.18-.19,15.333-5.318,15.713-5.508a139.015,139.015,0,0,1,5.733,17.267c1.157,4.334,2.158,8.754,3.108,13.226-1.053-1.191-5.439-5.612-5.8-5.888-4.662-3.764-15.92-8.271-21.514-4.576a7.943,7.943,0,0,0-1.433,11.741c2.987,3.678,8.737,4.714,13.209,4.558,5.042-.19,14.8-5.059,15.626-5.474.432,2.037.881,4.058,1.295,6.078,1.364,6.648,2.711,13.313,4.248,19.84.518,2.262,1.122,4.472,1.727,6.7-1.64-1.727-4.7-4.8-4.99-5.025-4.679-3.764-15.92-8.271-21.532-4.576a7.943,7.943,0,0,0-1.433,11.741c3,3.678,8.754,4.714,13.226,4.558s12.795-4.092,15.108-5.18c1.019,3.678,2.107,7.3,3.367,10.826.57,1.5,1.053,3.091,1.727,4.507l.95,2.245-1.3-.121s-.086,2.107.1,5.508c-4.938-3.453-12.087-6.544-16.68-4.42a7.96,7.96,0,0,0-3.194,11.4A10.823,10.823,0,0,0,411,436.93a31.08,31.08,0,0,0,6.371,14.211c.259.276,3.626,3.453,5.37,4.921-1.727-.915-3.453-1.83-5.18-2.815-2.5-1.381-5.18-2.953-7.667-4.438l-3.833-2.486c-1.347-.812-2.521-1.727-3.816-2.642-1.865-1.347-3.712-2.832-5.577-4.3,1.589-2.486,6.078-9.842,6.734-14.124s.294-10.257-3-13.658a7.96,7.96,0,0,0-11.828.086c-4.317,5.18-1.122,16.835,2.072,21.912.1.155.881,1.157,1.83,2.348-1.727-1.5-3.54-2.987-5.266-4.558-4.938-4.455-9.825-9.134-14.746-13.813l-3.091-2.97c1.33-2.072,6.268-10,6.907-14.5s.294-10.257-3-13.641a7.943,7.943,0,0,0-11.828,0c-4.317,5.18-1.122,16.835,2.072,21.912.1.19,1.053,1.381,2.124,2.711-2.711-2.5-5.439-4.973-8.219-7.338A141.853,141.853,0,0,0,342.385,392.5c.483-.742,6.458-9.911,7.217-14.9.673-4.438.311-10.257-3-13.658a7.96,7.96,0,0,0-11.828,0c-4.317,5.18-1.122,16.835,2.072,21.912.224.345,3.661,4.645,4.956,6.147l-.19-.121a103.29,103.29,0,0,0-16.49-8.219,142.516,142.516,0,0,0-15.644-5.18c-4.921-1.364-9.5-2.314-13.555-3.125-2.193-.414-4.213-.76-6.112-1.07h.121c.086,0-6.751-4.524-7.217-4.748-5.37-2.659-17.267-4.662-22.015.138a7.943,7.943,0,0,0,1.122,11.776c3.712,2.953,9.549,2.745,13.813,1.623s11.949-6.907,13.813-8.443c1.951.345,4.04.742,6.337,1.243,4.04.9,8.633,1.934,13.434,3.453,1.3.4,2.676.863,4.023,1.295-2.417-.259-5.733-.57-6.061-.553-5.992.1-17.526,3.833-19.477,10.257a7.96,7.96,0,0,0,6.423,9.946c4.645.915,9.739-1.968,13.071-4.956s7.528-11.983,8.392-13.934c2.953,1,5.974,2.107,9.065,3.453a103.074,103.074,0,0,1,16.11,8.443l.863.639c-1.174-.345-7.736-1.727-8.2-1.727-5.974-.553-17.837,1.9-20.478,8.081a7.96,7.96,0,0,0,5.284,10.585c4.524,1.4,9.894-.9,13.537-3.453,4.2-3,9.842-12.881,10.049-13.261a140.241,140.241,0,0,1,14.3,11.206c3.35,2.97,6.63,6.13,9.894,9.324-1.537-.414-7.632-1.727-8.1-1.727-5.957-.553-17.837,1.9-20.461,8.081a7.96,7.96,0,0,0,5.284,10.585c4.524,1.4,9.894-.9,13.537-3.453,4.092-2.935,9.549-12.38,10-13.175,1.485,1.45,2.97,2.884,4.438,4.351,4.817,4.783,9.6,9.6,14.487,14.211,1.727,1.589,3.453,3.108,5.18,4.628-2.314-.535-6.561-1.416-6.907-1.45-5.974-.553-17.837,1.9-20.478,8.081a7.96,7.96,0,0,0,5.284,10.585c4.524,1.4,9.894-.9,13.537-3.453s8.426-10.464,9.721-12.691c2.884,2.5,5.8,4.938,8.789,7.183,1.3.95,2.573,1.986,3.885,2.832l3.851,2.573c2.694,1.727,5.18,3.229,7.753,4.714,1.278.76,2.5,1.45,3.764,2.176-2.279-.881-5.905-2.227-6.233-2.314-5.836-1.45-17.923-.829-21.463,4.869a7.943,7.943,0,0,0,3.609,11.258c4.265,2.089,9.911.622,13.917-1.4,4.4-2.227,11.034-10.446,11.845-11.448,3.073,1.727,6.1,3.453,8.944,4.956,7.615,4.075,14.262,7.321,19.408,9.739,16.749,14.487,40.318,16.075,40.318,16.075s1.243-28.231-15.385-46.81a58.274,58.274,0,0,0-20.7-14.47ZM423.9,456.718c.535-1.157,4.541-10.136,4.817-15.195.932-.173,1.882-.363,2.78-.57a65.614,65.614,0,0,0,10.36,24.847c-3.039-1.433-6.337-3.039-9.842-4.817-2.573-1.33-5.232-2.763-8.115-4.265Z" transform="translate(-258.591 -275.353)"/>
        <path id="Path_3302" data-name="Path 3302" class="cls-5" d="M469.557,361.31s-28.248.881-45.55,18.838-17.077,46.241-17.077,46.241,28.248-.863,45.55-18.838S469.557,361.31,469.557,361.31Z" transform="translate(-150.797 -212.89)"/>
      </g>
      <path id="Path_3303" data-name="Path 3303" class="cls-5" d="M413.027,420.9l27.748-24.933-1.191-1.33-26.574,23.88-.138-32.686.138.1,23.466-34.309-1.468-1-22.153,32.393-.345-78.668h-1.778l.242,53.389-17.664-15.281-1.174,1.347,18.838,16.3.173,38.177-26.781-23.69-1.174,1.329,27.955,24.743.155,34.758-20.116-15.782-1.105,1.4L411.318,437.7l.086,22.378,1.779-.017L413.01,420.9Z" transform="translate(-168.048 -254.282)"/>
      <path id="Path_3304" data-name="Path 3304" class="cls-5" d="M406.264,389.7l-1.779-.207-2.245,19.753-11.914-13.313h.035l-3.022-23.915-1.761.224,2.694,21.394-29.613-33.1-1.33,1.174,20.1,22.464-12.726.155.035,1.778L379,385.939l14.09,15.747L373.2,401.7v1.8l21.48-.035L407.49,417.78l-14.038.846.121,1.778,15.437-.932,8.53,9.549,1.312-1.191-15.022-16.8Z" transform="translate(-186.84 -213.45)"/>
      <path id="Path_3305" data-name="Path 3305" class="cls-5" d="M437.519,396.443l23.621-4.8-.363-1.744-21.117,4.282,30.8-32-1.295-1.226-20.893,21.7-1.105-12.674-1.761.155,1.226,14.228-14.642,15.212-1.519-19.822-1.779.138,1.64,21.411-13.33,13.848-1.882-13.934-1.761.242,2.072,15.316L406.56,426l1.278,1.243L423.464,411l21.463.829L445,410.05l-19.874-.76,12.4-12.881Z" transform="translate(-151.065 -213.144)"/>
    </g>
    <g id="freepik--character-1--inject-12" transform="translate(273.202 123.429)">
      <path id="Path_3333" data-name="Path 3333" class="cls-7" d="M213.214,266.752s-2.659,13.3-2.659,17.267,21.929,79.773,21.929,91.082,9.307,109.679,9.307,109.679l-15.281,3.332S213.87,440.9,207.9,423.621s-8.633-47.19-8.633-47.19l-13.952-49.867s-11.31-22.6-16.628-31.236-9.963-15.3-9.307-22.6,7.977-11.966,7.977-11.966Z" transform="translate(-99.512 0.202)"/>
      <path id="Path_3334" data-name="Path 3334" class="cls-7" d="M169.59,263a65.751,65.751,0,0,0,1.33,24.588c3.315,11.966,8.633,22.6,8.633,24.605s-3.989,59.83-4.645,61.815-45.878,103.7-45.2,105.707,10.636,5.974,10.636,5.974,66.477-92.395,69.793-97.057,15.3-87.75,17.267-92.395,3.989-34.534,3.989-34.534S186.2,260.343,169.59,263Z" transform="translate(-121.035 0.636)"/>
      <line id="Line_284" data-name="Line 284" class="cls-9" x1="11.154" y2="62.489" transform="translate(97.817 286.948)"/>
      <path id="Path_3335" data-name="Path 3335" class="cls-9" d="M175.355,328.937s-21.2-2.78-15.54.553a65.617,65.617,0,0,0,13.952,5.594H160.833" transform="translate(-99.847 48.955)"/>
      <path id="Path_3336" data-name="Path 3336" class="cls-9" d="M180.774,271a50.785,50.785,0,0,1-6.147,8.927,12.086,12.086,0,0,1-5.577,3.35" transform="translate(-92.437 7.643)"/>
      <path id="Path_3337" data-name="Path 3337" class="cls-9" d="M168.487,270.31s.553,16.2,1.122,22.879a187.431,187.431,0,0,1-1.122,33.48c-1.727,16.179-1.727,24-1.727,24" transform="translate(-94.101 7.142)"/>
      <path id="Path_3338" data-name="Path 3338" class="cls-1" d="M213.866,390.51s24.605,3.989,24.605,6.648-37.987,15.3-39.886,11.966,0-15.281,0-15.281Z" transform="translate(-71.587 94.489)"/>
      <path id="Path_3339" data-name="Path 3339" class="cls-1" d="M133.348,387.82s-9.307,10.636-8.633,13.3,11.31,7.977,16.628,8.633,17.267.673,20.6-1.33-7.3-4.645-9.963-7.3S144,393.794,144,393.794Z" transform="translate(-124.68 92.534)"/>
      <path id="Path_3340" data-name="Path 3340" class="cls-10" d="M161.917,404s-14.193-.294-20.34-1.968-15.057-7.822-15.057-7.822l-.967-.311a4.921,4.921,0,0,0-.863,2.8c.673,2.659,11.31,7.977,16.628,8.633S158.6,406,161.917,404Z" transform="translate(-124.672 96.952)"/>
      <path id="Path_3341" data-name="Path 3341" class="cls-10" d="M215.162,401.117c-6.7,2.8-15.057,1.727-16.732,1.727l-.691.1a9.306,9.306,0,0,0,.846,3.971c1.986,3.332,39.886-9.307,39.886-11.966,0-.38-.553-.812-1.45-1.243l-1.209.207S221.862,398.251,215.162,401.117Z" transform="translate(-71.588 96.814)"/>
      <path id="Path_3342" data-name="Path 3342" class="cls-1" d="M189.181,160.711q-1.519-3.626-3.263-7.235c-4.248-8.737-10.861-16.9-21.238-17.491s-25.745,6.268-29.872,16.421c-3.453,8.737-1.9,18.993,2.348,27.126a21.463,21.463,0,0,0,8.046,8.754c3.212,2.21,8.288,3.9,9.5,8.1,1.4,4.817-1.347,19.546-1.347,19.546l17.7,7.1a41.8,41.8,0,0,1,4.817-13.572,24.035,24.035,0,0,1,9.963-9.79c6.285,0,12.346-2.314,12.657-5.439.276-2.711-1.3-10.723-4.489-20.513a4.852,4.852,0,0,0,3.453-4.42C197.313,166.288,190.855,161.816,189.181,160.711Z" transform="translate(-118.697 -90.496)"/>
      <path id="Path_3343" data-name="Path 3343" class="cls-7" d="M164.495,181.288s5.853-2.435,5.18-5.387,0-4.887,2.486-8.219-3.246-3.92-6.061-7.114,8.754-9.928,16.68-12.087,15.178-6.371,7.908-14.746-13.468-2.348-17.077-.242-.38-8.979-9.445-7.114-7.995,7.062-7.252,10.015-2.884,5.059-6.13,6.907-8.841-.207-18.406,11.638-2.314,29.354,6.251,37.486,12.95,11.931,19.822,11.051,9.462-16.421,7.787-19.322Z" transform="translate(-122.381 -97.604)"/>
      <path id="Path_3344" data-name="Path 3344" class="cls-9" d="M154.206,146.29s-.622-2.21-3.453,5.18-2.21,12.9-9.652,17.854" transform="translate(-112.748 -83.206)"/>
      <path id="Path_3345" data-name="Path 3345" class="cls-9" d="M139.15,167.378s7.2-.932,9.186-5.318" transform="translate(-114.165 -71.522)"/>
      <path id="Path_3346" data-name="Path 3346" class="cls-1" d="M155.633,159.043s-5.75-8.271-8.184.881,5.681,13.157,9,12.19a4.628,4.628,0,0,0,3.091-4.679" transform="translate(-108.46 -76.205)"/>
      <path id="Path_3347" data-name="Path 3347" class="cls-1" d="M172,163.28s-6.786,2.486-8.046.311" transform="translate(-96.143 -70.635)"/>
      <path id="Path_3348" data-name="Path 3348" class="cls-1" d="M157.7,150.062s1.519-5.715,5.577-3.712" transform="translate(-100.685 -83.248)"/>
      <path id="Path_3349" data-name="Path 3349" class="cls-11" d="M152.5,165.17s4.887,6.907,10.36,9.635" transform="translate(-104.463 -69.262)"/>
      <path id="Path_3350" data-name="Path 3350" class="cls-7" d="M163.134,151.874c.57,1.364.553,2.676,0,2.935s-1.537-.673-2.107-2.037-.553-2.694,0-2.935S162.564,150.51,163.134,151.874Z" transform="translate(-98.573 -80.433)"/>
      <path id="Path_3351" data-name="Path 3351" class="cls-12" d="M151.6,177.23,179.069,194.5s20.72,48.088,37.452,84.176,20.427,49.556,20.427,49.556a241.566,241.566,0,0,1-39.714,10.861,265.912,265.912,0,0,1-41.043,3.626s-18.217-89.442-20.375-115.032S151.6,177.23,151.6,177.23Z" transform="translate(-116.718 -60.498)"/>
      <path id="Path_3352" data-name="Path 3352" class="cls-12" d="M141.54,186.371s23.327,19.805,25.779,21.2,7.459-13.054,7.459-13.054-23.915-16.9-27.471-17.267S141.54,186.371,141.54,186.371Z" transform="translate(-112.428 -60.488)"/>
      <line id="Line_285" data-name="Line 285" class="cls-11" x1="8.599" y2="2.348" transform="translate(67.462 166.53)"/>
      <line id="Line_286" data-name="Line 286" class="cls-11" x1="8.599" y2="2.348" transform="translate(72.556 176.717)"/>
      <path id="Path_3353" data-name="Path 3353" class="cls-11" d="M148.12,270.275a209.9,209.9,0,0,0,32.807-2.607l16.576-2.8" transform="translate(-107.646 3.188)"/>
      <line id="Line_287" data-name="Line 287" class="cls-11" y1="5.543" x2="14.366" transform="translate(96.366 260.72)"/>
      <line id="Line_288" data-name="Line 288" class="cls-11" x2="12.691" y2="29.509" transform="translate(95.365 220.264)"/>
      <line id="Line_289" data-name="Line 289" class="cls-11" x2="12.501" y2="2.763" transform="translate(31.685 198.888)"/>
      <path id="Path_3354" data-name="Path 3354" class="cls-11" d="M143.57,234.214s10.36-2.245,13.416-5.974" transform="translate(-110.953 -23.43)"/>
      <path id="Path_3355" data-name="Path 3355" class="cls-11" d="M145.153,207.567s-.294-13.813,2.832-19.287" transform="translate(-109.808 -52.468)"/>
      <line id="Line_290" data-name="Line 290" class="cls-11" x1="3.367" y2="6.7" transform="translate(39.61 138.557)"/>
      <rect id="Rectangle_925" data-name="Rectangle 925" class="cls-5" width="165.761" height="203.748" transform="translate(89.722 64.551) rotate(-3.92)"/>
      <g id="Group_8298" data-name="Group 8298" class="cls-13" transform="translate(89.722 53.22)">
        <g id="Group_8297" data-name="Group 8297" class="cls-14">
          <rect id="Rectangle_926" data-name="Rectangle 926" class="cls-2" width="34.585" height="31.788" transform="translate(158.972 -12.755)"/>
          <path id="Path_3356" data-name="Path 3356" class="cls-15" d="M282.426,147.988a3.3,3.3,0,0,0-6.268-1.433,3.3,3.3,0,0,0-6.268,1.433c0,2.089,2.331,4.058,3.937,5.18a14.018,14.018,0,0,1,2.469,1.951,9.029,9.029,0,0,1,2.607-2.21,6.51,6.51,0,0,0,3.522-4.921Z" transform="translate(-108.88 -137.364)"/>
          <path id="Path_3357" data-name="Path 3357" class="cls-15" d="M292.5,137.918a3.3,3.3,0,0,0-6.268-1.433,3.3,3.3,0,0,0-6.268,1.433c0,2.089,2.331,4.058,3.937,5.18a14.021,14.021,0,0,1,2.469,1.951,9.031,9.031,0,0,1,2.607-2.21,6.51,6.51,0,0,0,3.522-4.921Z" transform="translate(-101.562 -144.681)"/>
          <rect id="Rectangle_927" data-name="Rectangle 927" class="cls-2" width="34.585" height="31.788" transform="translate(158.972 -12.755)"/>
          <rect id="Rectangle_928" data-name="Rectangle 928" class="cls-2" width="34.585" height="31.788" transform="translate(158.972 19.05)"/>
          <path id="Path_3358" data-name="Path 3358" class="cls-6" d="M282.426,166.388a3.3,3.3,0,0,0-6.268-1.433,3.3,3.3,0,0,0-6.268,1.433c0,2.072,2.331,4.04,3.937,5.094a14.019,14.019,0,0,1,2.469,1.951,9.03,9.03,0,0,1,2.607-2.21,6.475,6.475,0,0,0,3.522-4.835Z" transform="translate(-108.88 -123.993)"/>
          <path id="Path_3359" data-name="Path 3359" class="cls-15" d="M292.467,156.388a3.3,3.3,0,0,0-6.268-1.433,3.3,3.3,0,0,0-6.2,1.433c0,2.072,2.331,4.04,3.937,5.18a14.022,14.022,0,0,1,2.469,1.951,9.032,9.032,0,0,1,2.607-2.21A6.475,6.475,0,0,0,292.467,156.388Z" transform="translate(-101.533 -131.259)"/>
          <rect id="Rectangle_929" data-name="Rectangle 929" class="cls-2" width="34.585" height="31.788" transform="translate(158.972 19.05)"/>
          <rect id="Rectangle_930" data-name="Rectangle 930" class="cls-2" width="34.585" height="31.788" transform="translate(158.972 50.839)"/>
          <path id="Path_3360" data-name="Path 3360" class="cls-6" d="M282.426,184.818a3.3,3.3,0,0,0-6.268-1.433,3.3,3.3,0,0,0-6.268,1.433c0,2.089,2.331,4.058,3.937,5.18a14.021,14.021,0,0,1,2.469,1.951,9.031,9.031,0,0,1,2.607-2.21A6.51,6.51,0,0,0,282.426,184.818Z" transform="translate(-108.88 -110.6)"/>
          <path id="Path_3361" data-name="Path 3361" class="cls-15" d="M292.5,174.748a3.3,3.3,0,0,0-6.268-1.433,3.3,3.3,0,0,0-6.268,1.433c0,2.089,2.331,4.058,3.937,5.18a14.017,14.017,0,0,1,2.469,1.951,9.029,9.029,0,0,1,2.607-2.21,6.51,6.51,0,0,0,3.522-4.921Z" transform="translate(-101.562 -117.918)"/>
          <rect id="Rectangle_931" data-name="Rectangle 931" class="cls-2" width="34.585" height="31.788" transform="translate(158.972 50.839)"/>
          <rect id="Rectangle_932" data-name="Rectangle 932" class="cls-2" width="34.585" height="31.788" transform="translate(158.972 82.644)"/>
          <path id="Path_3362" data-name="Path 3362" class="cls-6" d="M282.426,203.238a3.3,3.3,0,0,0-6.268-1.433,3.3,3.3,0,0,0-6.268,1.433c0,2.072,2.331,4.04,3.937,5.18a14.019,14.019,0,0,1,2.469,1.951,9.03,9.03,0,0,1,2.607-2.21,6.475,6.475,0,0,0,3.522-4.921Z" transform="translate(-108.88 -97.214)"/>
          <path id="Path_3363" data-name="Path 3363" class="cls-15" d="M292.5,193.168a3.3,3.3,0,0,0-6.268-1.433,3.3,3.3,0,0,0-6.268,1.433c0,2.072,2.331,4.04,3.937,5.094a14.022,14.022,0,0,1,2.469,1.951,9.031,9.031,0,0,1,2.607-2.21,6.475,6.475,0,0,0,3.522-4.835Z" transform="translate(-101.562 -104.532)"/>
          <rect id="Rectangle_933" data-name="Rectangle 933" class="cls-2" width="34.585" height="31.788" transform="translate(158.972 82.644)"/>
          <rect id="Rectangle_934" data-name="Rectangle 934" class="cls-2" width="34.585" height="31.805" transform="translate(158.972 114.432)"/>
          <path id="Path_3364" data-name="Path 3364" class="cls-6" d="M282.426,221.648a3.3,3.3,0,0,0-6.268-1.433,3.3,3.3,0,0,0-6.268,1.433c0,2.089,2.331,4.058,3.937,5.18a14.019,14.019,0,0,1,2.469,1.951,9.03,9.03,0,0,1,2.607-2.21,6.51,6.51,0,0,0,3.522-4.921Z" transform="translate(-108.88 -83.836)"/>
          <path id="Path_3365" data-name="Path 3365" class="cls-15" d="M292.5,211.578a3.3,3.3,0,0,0-6.268-1.433,3.3,3.3,0,0,0-6.268,1.433c0,2.089,2.331,4.058,3.937,5.18a14.018,14.018,0,0,1,2.469,1.951,9.03,9.03,0,0,1,2.607-2.21,6.51,6.51,0,0,0,3.522-4.921Z" transform="translate(-101.562 -91.154)"/>
          <rect id="Rectangle_935" data-name="Rectangle 935" class="cls-2" width="34.585" height="31.805" transform="translate(158.972 114.432)"/>
          <rect id="Rectangle_936" data-name="Rectangle 936" class="cls-2" width="34.585" height="31.788" transform="translate(158.972 146.238)"/>
          <path id="Path_3366" data-name="Path 3366" class="cls-6" d="M282.426,240.068a3.3,3.3,0,0,0-6.268-1.433,3.3,3.3,0,0,0-6.268,1.433c0,2.072,2.331,4.04,3.937,5.094a14.019,14.019,0,0,1,2.469,1.951,9.031,9.031,0,0,1,2.607-2.21,6.475,6.475,0,0,0,3.522-4.835Z" transform="translate(-108.88 -70.451)"/>
          <path id="Path_3367" data-name="Path 3367" class="cls-15" d="M292.5,230a3.3,3.3,0,0,0-6.268-1.433A3.3,3.3,0,0,0,279.96,230c0,2.072,2.331,4.04,3.937,5.094a14.018,14.018,0,0,1,2.469,1.951,9.03,9.03,0,0,1,2.607-2.21A6.475,6.475,0,0,0,292.5,230Z" transform="translate(-101.562 -77.768)"/>
          <rect id="Rectangle_937" data-name="Rectangle 937" class="cls-2" width="34.585" height="31.788" transform="translate(158.972 146.238)"/>
          <rect id="Rectangle_938" data-name="Rectangle 938" class="cls-2" width="34.585" height="31.788" transform="translate(158.972 178.026)"/>
          <path id="Path_3368" data-name="Path 3368" class="cls-6" d="M282.426,258.478a3.3,3.3,0,0,0-6.268-1.433,3.3,3.3,0,0,0-6.268,1.433c0,2.089,2.331,4.058,3.937,5.18a14.018,14.018,0,0,1,2.469,1.951,9.029,9.029,0,0,1,2.607-2.21,6.51,6.51,0,0,0,3.522-4.921Z" transform="translate(-108.88 -57.072)"/>
          <path id="Path_3369" data-name="Path 3369" class="cls-15" d="M292.467,248.388a3.3,3.3,0,0,0-6.268-1.433,3.3,3.3,0,0,0-6.2,1.433c0,2.089,2.331,4.058,3.937,5.18a14.024,14.024,0,0,1,2.469,1.951,9.03,9.03,0,0,1,2.607-2.21A6.51,6.51,0,0,0,292.467,248.388Z" transform="translate(-101.533 -64.405)"/>
          <rect id="Rectangle_939" data-name="Rectangle 939" class="cls-2" width="34.585" height="31.788" transform="translate(158.972 178.026)"/>
          <rect id="Rectangle_940" data-name="Rectangle 940" class="cls-2" width="34.585" height="31.805" transform="translate(158.972 209.832)"/>
          <path id="Path_3370" data-name="Path 3370" class="cls-15" d="M282.426,276.9a3.3,3.3,0,0,0-6.268-1.433,3.3,3.3,0,0,0-6.268,1.433c0,2.072,2.331,4.04,3.937,5.094a14.017,14.017,0,0,1,2.469,1.951,9.03,9.03,0,0,1,2.607-2.21,6.475,6.475,0,0,0,3.523-4.835Z" transform="translate(-108.88 -43.687)"/>
          <path id="Path_3371" data-name="Path 3371" class="cls-15" d="M292.5,266.828a3.3,3.3,0,0,0-6.268-1.433,3.3,3.3,0,0,0-6.268,1.433c0,2.072,2.331,4.04,3.937,5.094a14.017,14.017,0,0,1,2.469,1.951,9.029,9.029,0,0,1,2.607-2.21,6.475,6.475,0,0,0,3.522-4.835Z" transform="translate(-101.562 -51.005)"/>
          <rect id="Rectangle_941" data-name="Rectangle 941" class="cls-2" width="34.585" height="31.805" transform="translate(158.972 209.832)"/>
          <rect id="Rectangle_942" data-name="Rectangle 942" class="cls-2" width="34.585" height="31.788" transform="translate(124.387 -12.755)"/>
          <path id="Path_3372" data-name="Path 3372" class="cls-15" d="M262.4,147.988a3.3,3.3,0,0,0-6.268-1.433,3.3,3.3,0,0,0-6.268,1.433c0,2.089,2.331,4.058,3.937,5.18a14.022,14.022,0,0,1,2.469,1.951,9.031,9.031,0,0,1,2.607-2.21A6.509,6.509,0,0,0,262.4,147.988Z" transform="translate(-123.436 -137.364)"/>
          <path id="Path_3373" data-name="Path 3373" class="cls-15" d="M272.466,137.918a3.3,3.3,0,0,0-6.268-1.433,3.3,3.3,0,0,0-6.268,1.433c0,2.089,2.331,4.058,3.937,5.18a14.02,14.02,0,0,1,2.469,1.951,9.031,9.031,0,0,1,2.607-2.21,6.509,6.509,0,0,0,3.522-4.921Z" transform="translate(-116.118 -144.681)"/>
          <rect id="Rectangle_943" data-name="Rectangle 943" class="cls-2" width="34.585" height="31.788" transform="translate(124.387 -12.755)"/>
          <rect id="Rectangle_944" data-name="Rectangle 944" class="cls-2" width="34.585" height="31.788" transform="translate(124.387 19.05)"/>
          <path id="Path_3374" data-name="Path 3374" class="cls-6" d="M262.4,166.388a3.3,3.3,0,0,0-6.268-1.433,3.3,3.3,0,0,0-6.268,1.433c0,2.072,2.331,4.04,3.937,5.094a14.02,14.02,0,0,1,2.469,1.951,9.031,9.031,0,0,1,2.607-2.21,6.475,6.475,0,0,0,3.523-4.835Z" transform="translate(-123.436 -123.993)"/>
          <path id="Path_3375" data-name="Path 3375" class="cls-15" d="M272.466,156.388a3.3,3.3,0,0,0-6.268-1.433,3.3,3.3,0,0,0-6.268,1.433c0,2.072,2.331,4.04,3.937,5.18a14.022,14.022,0,0,1,2.469,1.951,9.031,9.031,0,0,1,2.607-2.21,6.475,6.475,0,0,0,3.523-4.921Z" transform="translate(-116.118 -131.259)"/>
          <rect id="Rectangle_945" data-name="Rectangle 945" class="cls-2" width="34.585" height="31.788" transform="translate(124.387 19.05)"/>
          <rect id="Rectangle_946" data-name="Rectangle 946" class="cls-2" width="34.585" height="31.788" transform="translate(124.387 50.839)"/>
          <path id="Path_3376" data-name="Path 3376" class="cls-6" d="M262.4,184.818a3.3,3.3,0,0,0-6.268-1.433,3.3,3.3,0,0,0-6.268,1.433c0,2.089,2.331,4.058,3.937,5.18a14.021,14.021,0,0,1,2.469,1.951,9.032,9.032,0,0,1,2.607-2.21A6.51,6.51,0,0,0,262.4,184.818Z" transform="translate(-123.436 -110.6)"/>
          <path id="Path_3377" data-name="Path 3377" class="cls-6" d="M272.466,174.748a3.3,3.3,0,0,0-6.268-1.433,3.3,3.3,0,0,0-6.268,1.433c0,2.089,2.331,4.058,3.937,5.18a14.022,14.022,0,0,1,2.469,1.951,9.029,9.029,0,0,1,2.607-2.21,6.51,6.51,0,0,0,3.522-4.921Z" transform="translate(-116.118 -117.918)"/>
          <rect id="Rectangle_947" data-name="Rectangle 947" class="cls-2" width="34.585" height="31.788" transform="translate(124.387 50.839)"/>
          <rect id="Rectangle_948" data-name="Rectangle 948" class="cls-2" width="34.585" height="31.788" transform="translate(124.387 82.644)"/>
          <path id="Path_3378" data-name="Path 3378" class="cls-6" d="M262.4,203.238a3.3,3.3,0,0,0-6.268-1.433,3.3,3.3,0,0,0-6.268,1.433c0,2.072,2.331,4.04,3.937,5.18a14.02,14.02,0,0,1,2.469,1.951,9.032,9.032,0,0,1,2.607-2.21,6.475,6.475,0,0,0,3.522-4.921Z" transform="translate(-123.436 -97.214)"/>
          <path id="Path_3379" data-name="Path 3379" class="cls-6" d="M272.466,193.168a3.3,3.3,0,0,0-6.268-1.433,3.3,3.3,0,0,0-6.268,1.433c0,2.072,2.331,4.04,3.937,5.094a14.022,14.022,0,0,1,2.469,1.951,9.03,9.03,0,0,1,2.607-2.21,6.475,6.475,0,0,0,3.523-4.835Z" transform="translate(-116.118 -104.532)"/>
          <rect id="Rectangle_949" data-name="Rectangle 949" class="cls-2" width="34.585" height="31.788" transform="translate(124.387 82.644)"/>
          <rect id="Rectangle_950" data-name="Rectangle 950" class="cls-2" width="34.585" height="31.805" transform="translate(124.387 114.432)"/>
          <path id="Path_3380" data-name="Path 3380" class="cls-6" d="M262.4,221.648a3.3,3.3,0,0,0-6.268-1.433,3.3,3.3,0,0,0-6.268,1.433c0,2.089,2.331,4.058,3.937,5.18a14.02,14.02,0,0,1,2.469,1.951,9.031,9.031,0,0,1,2.607-2.21A6.51,6.51,0,0,0,262.4,221.648Z" transform="translate(-123.436 -83.836)"/>
          <path id="Path_3381" data-name="Path 3381" class="cls-6" d="M272.466,211.578a3.3,3.3,0,0,0-6.268-1.433,3.3,3.3,0,0,0-6.268,1.433c0,2.089,2.331,4.058,3.937,5.18a14.025,14.025,0,0,1,2.469,1.951,9.031,9.031,0,0,1,2.607-2.21,6.509,6.509,0,0,0,3.522-4.921Z" transform="translate(-116.118 -91.154)"/>
          <rect id="Rectangle_951" data-name="Rectangle 951" class="cls-2" width="34.585" height="31.805" transform="translate(124.387 114.432)"/>
          <rect id="Rectangle_952" data-name="Rectangle 952" class="cls-2" width="34.585" height="31.788" transform="translate(124.387 146.238)"/>
          <path id="Path_3382" data-name="Path 3382" class="cls-6" d="M262.4,240.068a3.3,3.3,0,0,0-6.268-1.433,3.3,3.3,0,0,0-6.268,1.433c0,2.072,2.331,4.04,3.937,5.094a14.022,14.022,0,0,1,2.469,1.951,9.032,9.032,0,0,1,2.607-2.21,6.475,6.475,0,0,0,3.522-4.835Z" transform="translate(-123.436 -70.451)"/>
          <path id="Path_3383" data-name="Path 3383" class="cls-6" d="M272.466,230a3.3,3.3,0,0,0-6.268-1.433A3.3,3.3,0,0,0,259.93,230c0,2.072,2.331,4.04,3.937,5.094a14.023,14.023,0,0,1,2.469,1.951,9.03,9.03,0,0,1,2.607-2.21A6.475,6.475,0,0,0,272.466,230Z" transform="translate(-116.118 -77.768)"/>
          <rect id="Rectangle_953" data-name="Rectangle 953" class="cls-2" width="34.585" height="31.788" transform="translate(124.387 146.238)"/>
          <rect id="Rectangle_954" data-name="Rectangle 954" class="cls-2" width="34.585" height="31.788" transform="translate(124.387 178.026)"/>
          <path id="Path_3384" data-name="Path 3384" class="cls-6" d="M262.4,258.478a3.3,3.3,0,0,0-6.268-1.433,3.3,3.3,0,0,0-6.268,1.433c0,2.089,2.331,4.058,3.937,5.18a14.023,14.023,0,0,1,2.469,1.951,9.031,9.031,0,0,1,2.607-2.21,6.51,6.51,0,0,0,3.523-4.921Z" transform="translate(-123.436 -57.072)"/>
          <path id="Path_3385" data-name="Path 3385" class="cls-6" d="M272.466,248.388a3.3,3.3,0,0,0-6.268-1.433,3.3,3.3,0,0,0-6.268,1.433c0,2.089,2.331,4.058,3.937,5.18a14.024,14.024,0,0,1,2.469,1.951,9.029,9.029,0,0,1,2.607-2.21,6.51,6.51,0,0,0,3.522-4.921Z" transform="translate(-116.118 -64.405)"/>
          <rect id="Rectangle_955" data-name="Rectangle 955" class="cls-2" width="34.585" height="31.788" transform="translate(124.387 178.026)"/>
          <rect id="Rectangle_956" data-name="Rectangle 956" class="cls-2" width="34.585" height="31.805" transform="translate(124.387 209.832)"/>
          <path id="Path_3386" data-name="Path 3386" class="cls-15" d="M262.4,276.9a3.3,3.3,0,0,0-6.268-1.433,3.3,3.3,0,0,0-6.268,1.433c0,2.072,2.331,4.04,3.937,5.094a14.022,14.022,0,0,1,2.469,1.951,9.031,9.031,0,0,1,2.607-2.21A6.475,6.475,0,0,0,262.4,276.9Z" transform="translate(-123.436 -43.687)"/>
          <path id="Path_3387" data-name="Path 3387" class="cls-15" d="M272.466,266.828a3.3,3.3,0,0,0-6.268-1.433,3.3,3.3,0,0,0-6.268,1.433c0,2.072,2.331,4.04,3.937,5.094a14.024,14.024,0,0,1,2.469,1.951,9.03,9.03,0,0,1,2.607-2.21,6.475,6.475,0,0,0,3.522-4.835Z" transform="translate(-116.118 -51.005)"/>
          <rect id="Rectangle_957" data-name="Rectangle 957" class="cls-2" width="34.585" height="31.805" transform="translate(124.387 209.832)"/>
          <rect id="Rectangle_958" data-name="Rectangle 958" class="cls-2" width="34.585" height="31.788" transform="translate(89.801 -12.755)"/>
          <path id="Path_3388" data-name="Path 3388" class="cls-15" d="M242.366,147.988a3.3,3.3,0,0,0-6.268-1.433,3.3,3.3,0,0,0-6.268,1.433c0,2.089,2.331,4.058,3.937,5.18a14.021,14.021,0,0,1,2.469,1.951,9.031,9.031,0,0,1,2.607-2.21,6.51,6.51,0,0,0,3.522-4.921Z" transform="translate(-137.991 -137.364)"/>
          <path id="Path_3389" data-name="Path 3389" class="cls-15" d="M252.436,137.918a3.3,3.3,0,0,0-6.268-1.433,3.3,3.3,0,0,0-6.268,1.433c0,2.089,2.331,4.058,3.937,5.18a14.019,14.019,0,0,1,2.469,1.951,9.031,9.031,0,0,1,2.607-2.21A6.51,6.51,0,0,0,252.436,137.918Z" transform="translate(-130.673 -144.681)"/>
          <rect id="Rectangle_959" data-name="Rectangle 959" class="cls-2" width="34.585" height="31.788" transform="translate(89.801 -12.755)"/>
          <rect id="Rectangle_960" data-name="Rectangle 960" class="cls-2" width="34.585" height="31.788" transform="translate(89.801 19.05)"/>
          <path id="Path_3390" data-name="Path 3390" class="cls-15" d="M242.366,166.388a3.3,3.3,0,0,0-6.268-1.433,3.3,3.3,0,0,0-6.268,1.433c0,2.072,2.331,4.04,3.937,5.094a14.02,14.02,0,0,1,2.469,1.951,9.03,9.03,0,0,1,2.607-2.21,6.475,6.475,0,0,0,3.522-4.835Z" transform="translate(-137.991 -123.993)"/>
          <path id="Path_3391" data-name="Path 3391" class="cls-15" d="M252.436,156.388a3.3,3.3,0,0,0-6.268-1.433,3.3,3.3,0,0,0-6.268,1.433c0,2.072,2.331,4.04,3.937,5.18a14.017,14.017,0,0,1,2.469,1.951,9.032,9.032,0,0,1,2.607-2.21,6.475,6.475,0,0,0,3.522-4.921Z" transform="translate(-130.673 -131.259)"/>
          <rect id="Rectangle_961" data-name="Rectangle 961" class="cls-2" width="34.585" height="31.788" transform="translate(89.801 19.05)"/>
          <rect id="Rectangle_962" data-name="Rectangle 962" class="cls-2" width="34.585" height="31.788" transform="translate(89.801 50.839)"/>
          <path id="Path_3392" data-name="Path 3392" class="cls-15" d="M242.366,184.818a3.3,3.3,0,0,0-6.268-1.433,3.3,3.3,0,0,0-6.268,1.433c0,2.089,2.331,4.058,3.937,5.18a14.021,14.021,0,0,1,2.469,1.951,9.03,9.03,0,0,1,2.607-2.21A6.51,6.51,0,0,0,242.366,184.818Z" transform="translate(-137.991 -110.6)"/>
          <path id="Path_3393" data-name="Path 3393" class="cls-6" d="M252.436,174.748a3.3,3.3,0,0,0-6.268-1.433,3.3,3.3,0,0,0-6.268,1.433c0,2.089,2.331,4.058,3.937,5.18a14.017,14.017,0,0,1,2.469,1.951,9.031,9.031,0,0,1,2.607-2.21,6.51,6.51,0,0,0,3.522-4.921Z" transform="translate(-130.673 -117.918)"/>
          <rect id="Rectangle_963" data-name="Rectangle 963" class="cls-2" width="34.585" height="31.788" transform="translate(89.801 50.839)"/>
          <rect id="Rectangle_964" data-name="Rectangle 964" class="cls-2" width="34.585" height="31.788" transform="translate(89.801 82.644)"/>
          <path id="Path_3394" data-name="Path 3394" class="cls-15" d="M242.366,203.238A3.3,3.3,0,0,0,236.1,201.8a3.3,3.3,0,0,0-6.268,1.433c0,2.072,2.331,4.04,3.937,5.18a14.02,14.02,0,0,1,2.469,1.951,9.03,9.03,0,0,1,2.607-2.21,6.475,6.475,0,0,0,3.522-4.921Z" transform="translate(-137.991 -97.214)"/>
          <path id="Path_3395" data-name="Path 3395" class="cls-6" d="M252.436,193.168a3.3,3.3,0,0,0-6.268-1.433,3.3,3.3,0,0,0-6.268,1.433c0,2.072,2.331,4.04,3.937,5.094a14.02,14.02,0,0,1,2.469,1.951,9.031,9.031,0,0,1,2.607-2.21,6.475,6.475,0,0,0,3.523-4.835Z" transform="translate(-130.673 -104.532)"/>
          <rect id="Rectangle_965" data-name="Rectangle 965" class="cls-2" width="34.585" height="31.788" transform="translate(89.801 82.644)"/>
          <rect id="Rectangle_966" data-name="Rectangle 966" class="cls-2" width="34.585" height="31.805" transform="translate(89.801 114.432)"/>
          <path id="Path_3396" data-name="Path 3396" class="cls-15" d="M242.366,221.648a3.3,3.3,0,0,0-6.268-1.433,3.3,3.3,0,0,0-6.268,1.433c0,2.089,2.331,4.058,3.937,5.18a14.02,14.02,0,0,1,2.469,1.951,9.031,9.031,0,0,1,2.607-2.21A6.51,6.51,0,0,0,242.366,221.648Z" transform="translate(-137.991 -83.836)"/>
          <path id="Path_3397" data-name="Path 3397" class="cls-6" d="M252.436,211.578a3.3,3.3,0,0,0-6.268-1.433,3.3,3.3,0,0,0-6.268,1.433c0,2.089,2.331,4.058,3.937,5.18a14.018,14.018,0,0,1,2.469,1.951,9.032,9.032,0,0,1,2.607-2.21A6.51,6.51,0,0,0,252.436,211.578Z" transform="translate(-130.673 -91.154)"/>
          <rect id="Rectangle_967" data-name="Rectangle 967" class="cls-2" width="34.585" height="31.805" transform="translate(89.801 114.432)"/>
          <rect id="Rectangle_968" data-name="Rectangle 968" class="cls-2" width="34.585" height="31.788" transform="translate(89.801 146.238)"/>
          <path id="Path_3398" data-name="Path 3398" class="cls-15" d="M242.366,240.068a3.3,3.3,0,0,0-6.268-1.433,3.3,3.3,0,0,0-6.268,1.433c0,2.072,2.331,4.04,3.937,5.094a14.023,14.023,0,0,1,2.469,1.951,9.032,9.032,0,0,1,2.607-2.21,6.475,6.475,0,0,0,3.522-4.835Z" transform="translate(-137.991 -70.451)"/>
          <path id="Path_3399" data-name="Path 3399" class="cls-6" d="M252.436,230a3.3,3.3,0,0,0-6.268-1.433A3.3,3.3,0,0,0,239.9,230c0,2.072,2.331,4.04,3.937,5.094a14.018,14.018,0,0,1,2.469,1.951,9.031,9.031,0,0,1,2.607-2.21A6.475,6.475,0,0,0,252.436,230Z" transform="translate(-130.673 -77.768)"/>
          <rect id="Rectangle_969" data-name="Rectangle 969" class="cls-2" width="34.585" height="31.788" transform="translate(89.801 146.238)"/>
          <rect id="Rectangle_970" data-name="Rectangle 970" class="cls-2" width="34.585" height="31.788" transform="translate(89.801 178.026)"/>
          <path id="Path_3400" data-name="Path 3400" class="cls-15" d="M242.366,258.478a3.3,3.3,0,0,0-6.268-1.433,3.3,3.3,0,0,0-6.268,1.433c0,2.089,2.331,4.058,3.937,5.18a14.021,14.021,0,0,1,2.469,1.951,9.031,9.031,0,0,1,2.607-2.21A6.51,6.51,0,0,0,242.366,258.478Z" transform="translate(-137.991 -57.072)"/>
          <path id="Path_3401" data-name="Path 3401" class="cls-6" d="M252.436,248.388a3.3,3.3,0,0,0-6.268-1.433,3.3,3.3,0,0,0-6.268,1.433c0,2.089,2.331,4.058,3.937,5.18a14.019,14.019,0,0,1,2.469,1.951,9.031,9.031,0,0,1,2.607-2.21,6.509,6.509,0,0,0,3.522-4.921Z" transform="translate(-130.673 -64.405)"/>
          <rect id="Rectangle_971" data-name="Rectangle 971" class="cls-2" width="34.585" height="31.788" transform="translate(89.801 178.026)"/>
          <rect id="Rectangle_972" data-name="Rectangle 972" class="cls-2" width="34.585" height="31.805" transform="translate(89.801 209.832)"/>
          <path id="Path_3402" data-name="Path 3402" class="cls-15" d="M242.366,276.9a3.3,3.3,0,0,0-6.268-1.433,3.3,3.3,0,0,0-6.268,1.433c0,2.072,2.331,4.04,3.937,5.094a14.02,14.02,0,0,1,2.469,1.951,9.03,9.03,0,0,1,2.607-2.21A6.475,6.475,0,0,0,242.366,276.9Z" transform="translate(-137.991 -43.687)"/>
          <path id="Path_3403" data-name="Path 3403" class="cls-15" d="M252.436,266.828a3.3,3.3,0,0,0-6.268-1.433,3.3,3.3,0,0,0-6.268,1.433c0,2.072,2.331,4.04,3.937,5.094a14.018,14.018,0,0,1,2.469,1.951,9.031,9.031,0,0,1,2.607-2.21,6.475,6.475,0,0,0,3.523-4.835Z" transform="translate(-130.673 -51.005)"/>
          <rect id="Rectangle_973" data-name="Rectangle 973" class="cls-2" width="34.585" height="31.805" transform="translate(89.801 209.832)"/>
          <rect id="Rectangle_974" data-name="Rectangle 974" class="cls-2" width="34.585" height="31.788" transform="translate(55.216 -12.755)"/>
          <path id="Path_3404" data-name="Path 3404" class="cls-15" d="M222.336,147.988a3.3,3.3,0,0,0-6.268-1.433,3.3,3.3,0,0,0-6.268,1.433c0,2.089,2.331,4.058,3.937,5.18a14.02,14.02,0,0,1,2.469,1.951,9.031,9.031,0,0,1,2.607-2.21,6.51,6.51,0,0,0,3.522-4.921Z" transform="translate(-152.546 -137.364)"/>
          <path id="Path_3405" data-name="Path 3405" class="cls-15" d="M232.406,137.918a3.3,3.3,0,0,0-6.268-1.433,3.3,3.3,0,0,0-6.268,1.433c0,2.089,2.331,4.058,3.937,5.18a14.02,14.02,0,0,1,2.469,1.951,9.032,9.032,0,0,1,2.607-2.21,6.509,6.509,0,0,0,3.522-4.921Z" transform="translate(-145.229 -144.681)"/>
          <rect id="Rectangle_975" data-name="Rectangle 975" class="cls-2" width="34.585" height="31.788" transform="translate(55.216 -12.755)"/>
          <rect id="Rectangle_976" data-name="Rectangle 976" class="cls-2" width="34.585" height="31.788" transform="translate(55.216 19.05)"/>
          <path id="Path_3406" data-name="Path 3406" class="cls-15" d="M222.336,166.388a3.3,3.3,0,0,0-6.268-1.433,3.3,3.3,0,0,0-6.268,1.433c0,2.072,2.331,4.04,3.937,5.094a14.017,14.017,0,0,1,2.469,1.951,9.03,9.03,0,0,1,2.607-2.21,6.475,6.475,0,0,0,3.522-4.835Z" transform="translate(-152.546 -123.993)"/>
          <path id="Path_3407" data-name="Path 3407" class="cls-15" d="M232.406,156.388a3.3,3.3,0,0,0-6.268-1.433,3.3,3.3,0,0,0-6.268,1.433c0,2.072,2.331,4.04,3.937,5.18a14.02,14.02,0,0,1,2.469,1.951,9.03,9.03,0,0,1,2.607-2.21,6.475,6.475,0,0,0,3.522-4.921Z" transform="translate(-145.229 -131.259)"/>
          <rect id="Rectangle_977" data-name="Rectangle 977" class="cls-2" width="34.585" height="31.788" transform="translate(55.216 19.05)"/>
          <rect id="Rectangle_978" data-name="Rectangle 978" class="cls-2" width="34.585" height="31.788" transform="translate(55.216 50.839)"/>
          <path id="Path_3408" data-name="Path 3408" class="cls-6" d="M222.336,184.818a3.3,3.3,0,0,0-6.268-1.433,3.3,3.3,0,0,0-6.268,1.433c0,2.089,2.331,4.058,3.937,5.18a14.018,14.018,0,0,1,2.469,1.951,9.031,9.031,0,0,1,2.607-2.21A6.51,6.51,0,0,0,222.336,184.818Z" transform="translate(-152.546 -110.6)"/>
          <path id="Path_3409" data-name="Path 3409" class="cls-15" d="M232.406,174.748a3.3,3.3,0,0,0-6.268-1.433,3.3,3.3,0,0,0-6.268,1.433c0,2.089,2.331,4.058,3.937,5.18a14.02,14.02,0,0,1,2.469,1.951,9.03,9.03,0,0,1,2.607-2.21,6.51,6.51,0,0,0,3.522-4.921Z" transform="translate(-145.229 -117.918)"/>
          <rect id="Rectangle_979" data-name="Rectangle 979" class="cls-2" width="34.585" height="31.788" transform="translate(55.216 50.839)"/>
          <rect id="Rectangle_980" data-name="Rectangle 980" class="cls-2" width="34.585" height="31.788" transform="translate(55.216 82.644)"/>
          <path id="Path_3410" data-name="Path 3410" class="cls-6" d="M222.336,203.238a3.3,3.3,0,0,0-6.268-1.433,3.3,3.3,0,0,0-6.268,1.433c0,2.072,2.331,4.04,3.937,5.18a14.018,14.018,0,0,1,2.469,1.951,9.031,9.031,0,0,1,2.607-2.21,6.475,6.475,0,0,0,3.522-4.921Z" transform="translate(-152.546 -97.214)"/>
          <path id="Path_3411" data-name="Path 3411" class="cls-15" d="M232.406,193.168a3.3,3.3,0,0,0-6.268-1.433,3.3,3.3,0,0,0-6.268,1.433c0,2.072,2.331,4.04,3.937,5.094a14.021,14.021,0,0,1,2.469,1.951,9.03,9.03,0,0,1,2.607-2.21,6.475,6.475,0,0,0,3.522-4.835Z" transform="translate(-145.229 -104.532)"/>
          <rect id="Rectangle_981" data-name="Rectangle 981" class="cls-2" width="34.585" height="31.788" transform="translate(55.216 82.644)"/>
          <rect id="Rectangle_982" data-name="Rectangle 982" class="cls-2" width="34.585" height="31.805" transform="translate(55.216 114.432)"/>
          <path id="Path_3412" data-name="Path 3412" class="cls-6" d="M222.336,221.648a3.3,3.3,0,0,0-6.268-1.433,3.3,3.3,0,0,0-6.268,1.433c0,2.089,2.331,4.058,3.937,5.18a14.017,14.017,0,0,1,2.469,1.951,9.031,9.031,0,0,1,2.607-2.21,6.51,6.51,0,0,0,3.522-4.921Z" transform="translate(-152.546 -83.836)"/>
          <path id="Path_3413" data-name="Path 3413" class="cls-15" d="M232.406,211.578a3.3,3.3,0,0,0-6.268-1.433,3.3,3.3,0,0,0-6.268,1.433c0,2.089,2.331,4.058,3.937,5.18a14.021,14.021,0,0,1,2.469,1.951,9.031,9.031,0,0,1,2.607-2.21,6.51,6.51,0,0,0,3.522-4.921Z" transform="translate(-145.229 -91.154)"/>
          <rect id="Rectangle_983" data-name="Rectangle 983" class="cls-2" width="34.585" height="31.805" transform="translate(55.216 114.432)"/>
          <rect id="Rectangle_984" data-name="Rectangle 984" class="cls-2" width="34.585" height="31.788" transform="translate(55.216 146.238)"/>
          <path id="Path_3414" data-name="Path 3414" class="cls-6" d="M222.336,240.068a3.3,3.3,0,0,0-6.268-1.433,3.3,3.3,0,0,0-6.268,1.433c0,2.072,2.331,4.04,3.937,5.094a14.017,14.017,0,0,1,2.469,1.951,9.032,9.032,0,0,1,2.607-2.21,6.475,6.475,0,0,0,3.522-4.835Z" transform="translate(-152.546 -70.451)"/>
          <path id="Path_3415" data-name="Path 3415" class="cls-15" d="M232.406,230a3.3,3.3,0,0,0-6.268-1.433A3.3,3.3,0,0,0,219.87,230c0,2.072,2.331,4.04,3.937,5.094a14.021,14.021,0,0,1,2.469,1.951,9.031,9.031,0,0,1,2.607-2.21A6.475,6.475,0,0,0,232.406,230Z" transform="translate(-145.229 -77.768)"/>
          <rect id="Rectangle_985" data-name="Rectangle 985" class="cls-2" width="34.585" height="31.788" transform="translate(55.216 146.238)"/>
          <rect id="Rectangle_986" data-name="Rectangle 986" class="cls-2" width="34.585" height="31.788" transform="translate(55.216 178.026)"/>
          <path id="Path_3416" data-name="Path 3416" class="cls-15" d="M222.336,258.478a3.3,3.3,0,0,0-6.268-1.433,3.3,3.3,0,0,0-6.268,1.433c0,2.089,2.331,4.058,3.937,5.18a14.022,14.022,0,0,1,2.469,1.951,9.03,9.03,0,0,1,2.573-2.279A6.509,6.509,0,0,0,222.336,258.478Z" transform="translate(-152.546 -57.073)"/>
          <path id="Path_3417" data-name="Path 3417" class="cls-6" d="M232.406,248.388a3.3,3.3,0,0,0-6.268-1.433,3.3,3.3,0,0,0-6.268,1.433c0,2.089,2.331,4.058,3.937,5.18a14.021,14.021,0,0,1,2.469,1.951,9.029,9.029,0,0,1,2.607-2.21,6.509,6.509,0,0,0,3.522-4.921Z" transform="translate(-145.229 -64.405)"/>
          <rect id="Rectangle_987" data-name="Rectangle 987" class="cls-2" width="34.585" height="31.788" transform="translate(55.216 178.026)"/>
          <rect id="Rectangle_988" data-name="Rectangle 988" class="cls-2" width="34.585" height="31.805" transform="translate(55.216 209.832)"/>
          <path id="Path_3418" data-name="Path 3418" class="cls-15" d="M222.336,276.9a3.3,3.3,0,0,0-6.268-1.433A3.3,3.3,0,0,0,209.8,276.9c0,2.072,2.331,4.04,3.937,5.094a14.012,14.012,0,0,1,2.469,1.951,9.03,9.03,0,0,1,2.607-2.21A6.475,6.475,0,0,0,222.336,276.9Z" transform="translate(-152.546 -43.687)"/>
          <path id="Path_3419" data-name="Path 3419" class="cls-15" d="M232.406,266.828a3.3,3.3,0,0,0-6.268-1.433,3.3,3.3,0,0,0-6.268,1.433c0,2.072,2.331,4.04,3.937,5.094a14.023,14.023,0,0,1,2.469,1.951,9.029,9.029,0,0,1,2.607-2.21,6.475,6.475,0,0,0,3.522-4.835Z" transform="translate(-145.229 -51.005)"/>
          <rect id="Rectangle_989" data-name="Rectangle 989" class="cls-2" width="34.585" height="31.805" transform="translate(55.216 209.832)"/>
          <rect id="Rectangle_990" data-name="Rectangle 990" class="cls-2" width="34.585" height="31.788" transform="translate(20.631 -12.755)"/>
          <path id="Path_3420" data-name="Path 3420" class="cls-15" d="M202.276,147.988a3.3,3.3,0,0,0-6.268-1.433,3.3,3.3,0,0,0-6.268,1.433c0,2.089,2.331,4.058,3.937,5.18a14.02,14.02,0,0,1,2.469,1.951,9.031,9.031,0,0,1,2.607-2.21,6.51,6.51,0,0,0,3.522-4.921Z" transform="translate(-167.124 -137.364)"/>
          <path id="Path_3421" data-name="Path 3421" class="cls-15" d="M212.376,137.918a3.3,3.3,0,0,0-6.268-1.433,3.3,3.3,0,0,0-6.268,1.433c0,2.089,2.331,4.058,3.937,5.18a14.021,14.021,0,0,1,2.469,1.951,9.031,9.031,0,0,1,2.607-2.21A6.544,6.544,0,0,0,212.376,137.918Z" transform="translate(-159.784 -144.681)"/>
          <rect id="Rectangle_991" data-name="Rectangle 991" class="cls-2" width="34.585" height="31.788" transform="translate(20.631 -12.755)"/>
          <rect id="Rectangle_992" data-name="Rectangle 992" class="cls-2" width="34.585" height="31.788" transform="translate(20.631 19.05)"/>
          <path id="Path_3422" data-name="Path 3422" class="cls-6" d="M202.276,166.388a3.3,3.3,0,0,0-6.268-1.433,3.3,3.3,0,0,0-6.268,1.433c0,2.072,2.331,4.04,3.937,5.094a14.017,14.017,0,0,1,2.469,1.951,9.03,9.03,0,0,1,2.607-2.21,6.475,6.475,0,0,0,3.523-4.835Z" transform="translate(-167.124 -123.993)"/>
          <path id="Path_3423" data-name="Path 3423" class="cls-15" d="M212.376,156.388a3.3,3.3,0,0,0-6.268-1.433,3.3,3.3,0,0,0-6.268,1.433c0,2.072,2.331,4.04,3.937,5.18a14.019,14.019,0,0,1,2.469,1.951,9.03,9.03,0,0,1,2.607-2.21,6.509,6.509,0,0,0,3.522-4.921Z" transform="translate(-159.784 -131.259)"/>
          <rect id="Rectangle_993" data-name="Rectangle 993" class="cls-2" width="34.585" height="31.788" transform="translate(20.631 19.05)"/>
          <rect id="Rectangle_994" data-name="Rectangle 994" class="cls-2" width="34.585" height="31.788" transform="translate(20.631 50.839)"/>
          <path id="Path_3424" data-name="Path 3424" class="cls-6" d="M202.276,184.818a3.3,3.3,0,0,0-6.268-1.433,3.3,3.3,0,0,0-6.268,1.433c0,2.089,2.331,4.058,3.937,5.18a14.018,14.018,0,0,1,2.469,1.951,9.031,9.031,0,0,1,2.607-2.21A6.51,6.51,0,0,0,202.276,184.818Z" transform="translate(-167.124 -110.6)"/>
          <path id="Path_3425" data-name="Path 3425" class="cls-15" d="M212.376,174.748a3.3,3.3,0,0,0-6.268-1.433,3.3,3.3,0,0,0-6.268,1.433c0,2.089,2.331,4.058,3.937,5.18a14.019,14.019,0,0,1,2.469,1.951,9.03,9.03,0,0,1,2.607-2.21A6.544,6.544,0,0,0,212.376,174.748Z" transform="translate(-159.784 -117.918)"/>
          <rect id="Rectangle_995" data-name="Rectangle 995" class="cls-2" width="34.585" height="31.788" transform="translate(20.631 50.839)"/>
          <rect id="Rectangle_996" data-name="Rectangle 996" class="cls-2" width="34.585" height="31.788" transform="translate(20.631 82.644)"/>
          <path id="Path_3426" data-name="Path 3426" class="cls-6" d="M202.276,203.238a3.3,3.3,0,0,0-6.268-1.433,3.3,3.3,0,0,0-6.268,1.433c0,2.072,2.331,4.04,3.937,5.18a14.018,14.018,0,0,1,2.469,1.951,9.031,9.031,0,0,1,2.607-2.21,6.475,6.475,0,0,0,3.522-4.921Z" transform="translate(-167.124 -97.214)"/>
          <path id="Path_3427" data-name="Path 3427" class="cls-6" d="M212.376,193.168a3.3,3.3,0,0,0-6.268-1.433,3.3,3.3,0,0,0-6.268,1.433c0,2.072,2.331,4.04,3.937,5.094a14.023,14.023,0,0,1,2.469,1.951,9.03,9.03,0,0,1,2.607-2.21A6.509,6.509,0,0,0,212.376,193.168Z" transform="translate(-159.784 -104.532)"/>
          <rect id="Rectangle_997" data-name="Rectangle 997" class="cls-2" width="34.585" height="31.788" transform="translate(20.631 82.644)"/>
          <rect id="Rectangle_998" data-name="Rectangle 998" class="cls-2" width="34.585" height="31.805" transform="translate(20.631 114.432)"/>
          <path id="Path_3428" data-name="Path 3428" class="cls-6" d="M202.276,221.648a3.3,3.3,0,0,0-6.268-1.433,3.3,3.3,0,0,0-6.268,1.433c0,2.089,2.331,4.058,3.937,5.18a14.017,14.017,0,0,1,2.469,1.951,9.031,9.031,0,0,1,2.607-2.21,6.51,6.51,0,0,0,3.522-4.921Z" transform="translate(-167.124 -83.836)"/>
          <path id="Path_3429" data-name="Path 3429" class="cls-6" d="M212.376,211.578a3.3,3.3,0,0,0-6.268-1.433,3.3,3.3,0,0,0-6.268,1.433c0,2.089,2.331,4.058,3.937,5.18a14.021,14.021,0,0,1,2.469,1.951,9.031,9.031,0,0,1,2.607-2.21A6.544,6.544,0,0,0,212.376,211.578Z" transform="translate(-159.784 -91.154)"/>
          <rect id="Rectangle_999" data-name="Rectangle 999" class="cls-2" width="34.585" height="31.805" transform="translate(20.631 114.432)"/>
          <rect id="Rectangle_1000" data-name="Rectangle 1000" class="cls-2" width="34.585" height="31.788" transform="translate(20.631 146.238)"/>
          <path id="Path_3430" data-name="Path 3430" class="cls-6" d="M202.276,240.068a3.3,3.3,0,0,0-6.268-1.433,3.3,3.3,0,0,0-6.268,1.433c0,2.072,2.331,4.04,3.937,5.094a14.017,14.017,0,0,1,2.469,1.951,9.032,9.032,0,0,1,2.607-2.21,6.475,6.475,0,0,0,3.522-4.835Z" transform="translate(-167.124 -70.451)"/>
          <path id="Path_3431" data-name="Path 3431" class="cls-6" d="M212.376,230a3.3,3.3,0,0,0-6.268-1.433A3.3,3.3,0,0,0,199.84,230c0,2.072,2.331,4.04,3.937,5.094a14.021,14.021,0,0,1,2.469,1.951,9.03,9.03,0,0,1,2.607-2.21A6.509,6.509,0,0,0,212.376,230Z" transform="translate(-159.784 -77.768)"/>
          <rect id="Rectangle_1001" data-name="Rectangle 1001" class="cls-2" width="34.585" height="31.788" transform="translate(20.631 146.238)"/>
          <rect id="Rectangle_1002" data-name="Rectangle 1002" class="cls-2" width="34.585" height="31.788" transform="translate(20.631 178.026)"/>
          <path id="Path_3432" data-name="Path 3432" class="cls-15" d="M202.276,258.478a3.3,3.3,0,0,0-6.268-1.433,3.3,3.3,0,0,0-6.268,1.433c0,2.089,2.331,4.058,3.937,5.18a14.022,14.022,0,0,1,2.469,1.951,9.031,9.031,0,0,1,2.676-2.279,6.509,6.509,0,0,0,3.453-4.852Z" transform="translate(-167.124 -57.072)"/>
          <path id="Path_3433" data-name="Path 3433" class="cls-6" d="M212.376,248.388a3.3,3.3,0,0,0-6.268-1.433,3.3,3.3,0,0,0-6.268,1.433c0,2.089,2.331,4.058,3.937,5.18a14.021,14.021,0,0,1,2.469,1.951,9.03,9.03,0,0,1,2.607-2.21,6.544,6.544,0,0,0,3.522-4.921Z" transform="translate(-159.784 -64.405)"/>
          <rect id="Rectangle_1003" data-name="Rectangle 1003" class="cls-2" width="34.585" height="31.788" transform="translate(20.631 178.026)"/>
          <rect id="Rectangle_1004" data-name="Rectangle 1004" class="cls-2" width="34.585" height="31.805" transform="translate(20.631 209.832)"/>
          <path id="Path_3434" data-name="Path 3434" class="cls-15" d="M202.276,276.9a3.3,3.3,0,0,0-6.268-1.433,3.3,3.3,0,0,0-6.268,1.433c0,2.072,2.331,4.04,3.937,5.094a14.015,14.015,0,0,1,2.469,1.951,9.03,9.03,0,0,1,2.607-2.21,6.475,6.475,0,0,0,3.522-4.835Z" transform="translate(-167.124 -43.687)"/>
          <path id="Path_3435" data-name="Path 3435" class="cls-15" d="M212.376,266.828a3.3,3.3,0,0,0-6.268-1.433,3.3,3.3,0,0,0-6.268,1.433c0,2.072,2.331,4.04,3.937,5.094a14.021,14.021,0,0,1,2.469,1.951,9.031,9.031,0,0,1,2.607-2.21,6.509,6.509,0,0,0,3.522-4.835Z" transform="translate(-159.784 -51.005)"/>
          <rect id="Rectangle_1005" data-name="Rectangle 1005" class="cls-2" width="34.585" height="31.805" transform="translate(20.631 209.832)"/>
          <rect id="Rectangle_1006" data-name="Rectangle 1006" class="cls-2" width="34.585" height="31.788" transform="translate(-13.955 -12.755)"/>
          <path id="Path_3436" data-name="Path 3436" class="cls-15" d="M182.276,147.988a3.3,3.3,0,0,0-6.268-1.433,3.3,3.3,0,0,0-6.268,1.433c0,2.089,2.331,4.058,3.937,5.18a14.021,14.021,0,0,1,2.469,1.951,9.031,9.031,0,0,1,2.607-2.21A6.544,6.544,0,0,0,182.276,147.988Z" transform="translate(-181.657 -137.364)"/>
          <path id="Path_3437" data-name="Path 3437" class="cls-15" d="M192.346,137.918a3.3,3.3,0,0,0-6.268-1.433,3.3,3.3,0,0,0-6.268,1.433c0,2.089,2.331,4.058,3.937,5.18a14.018,14.018,0,0,1,2.469,1.951,9.03,9.03,0,0,1,2.607-2.21A6.544,6.544,0,0,0,192.346,137.918Z" transform="translate(-174.34 -144.681)"/>
          <rect id="Rectangle_1007" data-name="Rectangle 1007" class="cls-2" width="34.585" height="31.788" transform="translate(-13.955 -12.755)"/>
          <rect id="Rectangle_1008" data-name="Rectangle 1008" class="cls-2" width="34.585" height="31.788" transform="translate(-13.955 19.05)"/>
          <path id="Path_3438" data-name="Path 3438" class="cls-15" d="M182.276,166.388a3.3,3.3,0,0,0-6.268-1.433,3.3,3.3,0,0,0-6.268,1.433c0,2.072,2.331,4.04,3.937,5.094a14.02,14.02,0,0,1,2.469,1.951,9.03,9.03,0,0,1,2.607-2.21A6.509,6.509,0,0,0,182.276,166.388Z" transform="translate(-181.657 -123.993)"/>
          <path id="Path_3439" data-name="Path 3439" class="cls-15" d="M192.346,156.388a3.3,3.3,0,0,0-6.268-1.433,3.3,3.3,0,0,0-6.268,1.433c0,2.072,2.331,4.04,3.937,5.18a14.016,14.016,0,0,1,2.469,1.951,9.03,9.03,0,0,1,2.607-2.21A6.51,6.51,0,0,0,192.346,156.388Z" transform="translate(-174.34 -131.259)"/>
          <rect id="Rectangle_1009" data-name="Rectangle 1009" class="cls-2" width="34.585" height="31.788" transform="translate(-13.955 19.05)"/>
          <rect id="Rectangle_1010" data-name="Rectangle 1010" class="cls-2" width="34.585" height="31.788" transform="translate(-13.955 50.839)"/>
          <path id="Path_3440" data-name="Path 3440" class="cls-15" d="M182.276,184.818a3.3,3.3,0,0,0-6.268-1.433,3.3,3.3,0,0,0-6.268,1.433c0,2.089,2.331,4.058,3.937,5.18a14.021,14.021,0,0,1,2.469,1.951,9.03,9.03,0,0,1,2.607-2.21,6.544,6.544,0,0,0,3.522-4.921Z" transform="translate(-181.657 -110.6)"/>
          <path id="Path_3441" data-name="Path 3441" class="cls-6" d="M192.346,174.748a3.3,3.3,0,0,0-6.268-1.433,3.3,3.3,0,0,0-6.268,1.433c0,2.089,2.331,4.058,3.937,5.18a14.016,14.016,0,0,1,2.469,1.951,9.03,9.03,0,0,1,2.607-2.21A6.544,6.544,0,0,0,192.346,174.748Z" transform="translate(-174.34 -117.918)"/>
          <rect id="Rectangle_1011" data-name="Rectangle 1011" class="cls-2" width="34.585" height="31.788" transform="translate(-13.955 50.839)"/>
          <rect id="Rectangle_1012" data-name="Rectangle 1012" class="cls-2" width="34.585" height="31.788" transform="translate(-13.955 82.644)"/>
          <path id="Path_3442" data-name="Path 3442" class="cls-15" d="M182.276,203.238a3.3,3.3,0,0,0-6.268-1.433,3.3,3.3,0,0,0-6.268,1.433c0,2.072,2.331,4.04,3.937,5.18a14.02,14.02,0,0,1,2.469,1.951,9.03,9.03,0,0,1,2.607-2.21,6.509,6.509,0,0,0,3.522-4.921Z" transform="translate(-181.657 -97.214)"/>
          <path id="Path_3443" data-name="Path 3443" class="cls-6" d="M192.346,193.168a3.3,3.3,0,0,0-6.268-1.433,3.3,3.3,0,0,0-6.268,1.433c0,2.072,2.331,4.04,3.937,5.094a14.02,14.02,0,0,1,2.469,1.951,9.03,9.03,0,0,1,2.607-2.21A6.51,6.51,0,0,0,192.346,193.168Z" transform="translate(-174.34 -104.532)"/>
          <rect id="Rectangle_1013" data-name="Rectangle 1013" class="cls-2" width="34.585" height="31.788" transform="translate(-13.955 82.644)"/>
          <rect id="Rectangle_1014" data-name="Rectangle 1014" class="cls-2" width="34.585" height="31.805" transform="translate(-13.955 114.432)"/>
          <path id="Path_3444" data-name="Path 3444" class="cls-15" d="M182.276,221.648a3.3,3.3,0,0,0-6.268-1.433,3.3,3.3,0,0,0-6.268,1.433c0,2.089,2.331,4.058,3.937,5.18a14.02,14.02,0,0,1,2.469,1.951,9.031,9.031,0,0,1,2.607-2.21A6.544,6.544,0,0,0,182.276,221.648Z" transform="translate(-181.657 -83.836)"/>
          <path id="Path_3445" data-name="Path 3445" class="cls-6" d="M192.346,211.578a3.3,3.3,0,0,0-6.268-1.433,3.3,3.3,0,0,0-6.268,1.433c0,2.089,2.331,4.058,3.937,5.18a14.017,14.017,0,0,1,2.469,1.951,9.031,9.031,0,0,1,2.555-2.279,6.544,6.544,0,0,0,3.574-4.852Z" transform="translate(-174.34 -91.154)"/>
          <rect id="Rectangle_1015" data-name="Rectangle 1015" class="cls-2" width="34.585" height="31.805" transform="translate(-13.955 114.432)"/>
          <rect id="Rectangle_1016" data-name="Rectangle 1016" class="cls-2" width="34.585" height="31.788" transform="translate(-13.955 146.238)"/>
          <path id="Path_3446" data-name="Path 3446" class="cls-15" d="M182.276,240.068a3.3,3.3,0,0,0-6.268-1.433,3.3,3.3,0,0,0-6.268,1.433c0,2.072,2.331,4.04,3.937,5.094a14.023,14.023,0,0,1,2.469,1.951,9.031,9.031,0,0,1,2.607-2.21,6.51,6.51,0,0,0,3.522-4.835Z" transform="translate(-181.657 -70.451)"/>
          <path id="Path_3447" data-name="Path 3447" class="cls-6" d="M192.346,230a3.3,3.3,0,0,0-6.268-1.433A3.3,3.3,0,0,0,179.81,230c0,2.072,2.331,4.04,3.937,5.094a14.017,14.017,0,0,1,2.469,1.951,9.031,9.031,0,0,1,2.607-2.21A6.51,6.51,0,0,0,192.346,230Z" transform="translate(-174.34 -77.768)"/>
          <rect id="Rectangle_1017" data-name="Rectangle 1017" class="cls-2" width="34.585" height="31.788" transform="translate(-13.955 146.238)"/>
          <rect id="Rectangle_1018" data-name="Rectangle 1018" class="cls-2" width="34.585" height="31.788" transform="translate(-13.955 178.026)"/>
          <path id="Path_3448" data-name="Path 3448" class="cls-15" d="M182.276,258.478a3.3,3.3,0,0,0-6.268-1.433,3.3,3.3,0,0,0-6.268,1.433c0,2.089,2.331,4.058,3.937,5.18a14.021,14.021,0,0,1,2.469,1.951,9.031,9.031,0,0,1,2.676-2.279,6.544,6.544,0,0,0,3.453-4.852Z" transform="translate(-181.657 -57.072)"/>
          <path id="Path_3449" data-name="Path 3449" class="cls-15" d="M192.346,248.388a3.3,3.3,0,0,0-6.268-1.433,3.3,3.3,0,0,0-6.268,1.433c0,2.089,2.331,4.058,3.937,5.18a14.018,14.018,0,0,1,2.469,1.951,9.03,9.03,0,0,1,2.607-2.21,6.544,6.544,0,0,0,3.522-4.921Z" transform="translate(-174.34 -64.405)"/>
          <rect id="Rectangle_1019" data-name="Rectangle 1019" class="cls-2" width="34.585" height="31.788" transform="translate(-13.955 178.026)"/>
          <rect id="Rectangle_1020" data-name="Rectangle 1020" class="cls-2" width="34.585" height="31.805" transform="translate(-13.955 209.832)"/>
          <path id="Path_3450" data-name="Path 3450" class="cls-15" d="M182.276,276.9a3.3,3.3,0,0,0-6.268-1.433,3.3,3.3,0,0,0-6.268,1.433c0,2.072,2.331,4.04,3.937,5.094a14.023,14.023,0,0,1,2.469,1.951,9.03,9.03,0,0,1,2.607-2.21A6.509,6.509,0,0,0,182.276,276.9Z" transform="translate(-181.657 -43.687)"/>
          <path id="Path_3451" data-name="Path 3451" class="cls-15" d="M192.346,266.828a3.3,3.3,0,0,0-6.268-1.433,3.3,3.3,0,0,0-6.268,1.433c0,2.072,2.331,4.04,3.937,5.094a14.019,14.019,0,0,1,2.469,1.951,9.031,9.031,0,0,1,2.607-2.21,6.51,6.51,0,0,0,3.522-4.835Z" transform="translate(-174.34 -51.005)"/>
          <rect id="Rectangle_1021" data-name="Rectangle 1021" class="cls-2" width="34.585" height="31.805" transform="translate(-13.955 209.832)"/>
        </g>
      </g>
      <rect id="Rectangle_1024" data-name="Rectangle 1024" class="cls-16" width="165.761" height="203.748" transform="translate(89.722 64.551) rotate(-3.92)"/>
      <rect id="Rectangle_1025" data-name="Rectangle 1025" class="cls-17" width="165.761" height="29.733" transform="translate(89.749 64.525) rotate(-3.92)"/>
      <rect id="Rectangle_1026" data-name="Rectangle 1026" class="cls-5" width="181.871" height="37.987" transform="translate(80.668 50.157) rotate(-3.92)"/>
      <g id="Group_8300" data-name="Group 8300" class="cls-18" transform="translate(80.668 37.724)">
        <g id="Group_8299" data-name="Group 8299" class="cls-19">
          <rect id="Rectangle_1027" data-name="Rectangle 1027" class="cls-2" width="34.585" height="31.788" transform="translate(168.027 -29.048)"/>
          <path id="Path_3452" data-name="Path 3452" class="cls-15" d="M282.426,129.578a3.3,3.3,0,0,0-6.268-1.433,3.3,3.3,0,0,0-6.268,1.433c0,2.072,2.331,4.04,3.937,5.094a14.02,14.02,0,0,1,2.469,1.951,9.03,9.03,0,0,1,2.607-2.21,6.51,6.51,0,0,0,3.522-4.835Z" transform="translate(-99.826 -135.247)"/>
          <path id="Path_3453" data-name="Path 3453" class="cls-15" d="M292.5,119.508a3.3,3.3,0,0,0-6.268-1.433,3.3,3.3,0,0,0-6.268,1.433c0,2.072,2.331,4.04,3.937,5.094a14.02,14.02,0,0,1,2.469,1.951,9.031,9.031,0,0,1,2.607-2.21,6.475,6.475,0,0,0,3.522-4.835Z" transform="translate(-92.508 -142.564)"/>
          <rect id="Rectangle_1028" data-name="Rectangle 1028" class="cls-2" width="34.585" height="31.788" transform="translate(168.027 -29.048)"/>
          <rect id="Rectangle_1029" data-name="Rectangle 1029" class="cls-2" width="34.585" height="31.788" transform="translate(168.027 2.74)"/>
          <path id="Path_3454" data-name="Path 3454" class="cls-6" d="M282.426,147.988a3.3,3.3,0,0,0-6.268-1.433,3.3,3.3,0,0,0-6.268,1.433c0,2.089,2.331,4.058,3.937,5.18a14.018,14.018,0,0,1,2.469,1.951,9.029,9.029,0,0,1,2.607-2.21,6.51,6.51,0,0,0,3.522-4.921Z" transform="translate(-99.826 -121.868)"/>
          <path id="Path_3455" data-name="Path 3455" class="cls-15" d="M292.5,137.918a3.3,3.3,0,0,0-6.268-1.433,3.3,3.3,0,0,0-6.268,1.433c0,2.089,2.331,4.058,3.937,5.18a14.021,14.021,0,0,1,2.469,1.951,9.031,9.031,0,0,1,2.607-2.21,6.51,6.51,0,0,0,3.522-4.921Z" transform="translate(-92.508 -129.186)"/>
          <rect id="Rectangle_1030" data-name="Rectangle 1030" class="cls-2" width="34.585" height="31.788" transform="translate(168.027 2.74)"/>
          <rect id="Rectangle_1031" data-name="Rectangle 1031" class="cls-2" width="34.585" height="31.788" transform="translate(168.027 34.546)"/>
          <path id="Path_3456" data-name="Path 3456" class="cls-15" d="M282.426,166.388a3.3,3.3,0,0,0-6.268-1.433,3.3,3.3,0,0,0-6.268,1.433c0,2.072,2.331,4.04,3.937,5.094a14.019,14.019,0,0,1,2.469,1.951,9.03,9.03,0,0,1,2.607-2.21,6.475,6.475,0,0,0,3.522-4.835Z" transform="translate(-99.826 -108.497)"/>
          <path id="Path_3457" data-name="Path 3457" class="cls-15" d="M292.467,156.388a3.3,3.3,0,0,0-6.268-1.433,3.3,3.3,0,0,0-6.2,1.433c0,2.072,2.331,4.04,3.937,5.18a14.022,14.022,0,0,1,2.469,1.951,9.032,9.032,0,0,1,2.607-2.21A6.475,6.475,0,0,0,292.467,156.388Z" transform="translate(-92.479 -115.764)"/>
          <rect id="Rectangle_1032" data-name="Rectangle 1032" class="cls-2" width="34.585" height="31.788" transform="translate(168.027 34.546)"/>
          <rect id="Rectangle_1033" data-name="Rectangle 1033" class="cls-2" width="34.585" height="31.788" transform="translate(133.441 -29.048)"/>
          <path id="Path_3458" data-name="Path 3458" class="cls-15" d="M262.4,129.578a3.3,3.3,0,0,0-6.268-1.433,3.3,3.3,0,0,0-6.268,1.433c0,2.072,2.331,4.04,3.937,5.094a14.02,14.02,0,0,1,2.469,1.951,9.031,9.031,0,0,1,2.607-2.21A6.51,6.51,0,0,0,262.4,129.578Z" transform="translate(-114.381 -135.246)"/>
          <path id="Path_3459" data-name="Path 3459" class="cls-15" d="M272.466,119.508a3.3,3.3,0,0,0-6.268-1.433,3.3,3.3,0,0,0-6.268,1.433c0,2.072,2.331,4.04,3.937,5.094a14.022,14.022,0,0,1,2.469,1.951,9.031,9.031,0,0,1,2.607-2.21,6.475,6.475,0,0,0,3.523-4.835Z" transform="translate(-107.064 -142.564)"/>
          <rect id="Rectangle_1034" data-name="Rectangle 1034" class="cls-2" width="34.585" height="31.788" transform="translate(133.441 -29.048)"/>
          <rect id="Rectangle_1035" data-name="Rectangle 1035" class="cls-2" width="34.585" height="31.788" transform="translate(133.441 2.74)"/>
          <path id="Path_3460" data-name="Path 3460" class="cls-6" d="M262.4,147.988a3.3,3.3,0,0,0-6.268-1.433,3.3,3.3,0,0,0-6.268,1.433c0,2.089,2.331,4.058,3.937,5.18a14.022,14.022,0,0,1,2.469,1.951,9.031,9.031,0,0,1,2.607-2.21A6.509,6.509,0,0,0,262.4,147.988Z" transform="translate(-114.381 -121.868)"/>
          <path id="Path_3461" data-name="Path 3461" class="cls-6" d="M272.466,137.918a3.3,3.3,0,0,0-6.268-1.433,3.3,3.3,0,0,0-6.268,1.433c0,2.089,2.331,4.058,3.937,5.18a14.02,14.02,0,0,1,2.469,1.951,9.031,9.031,0,0,1,2.607-2.21,6.509,6.509,0,0,0,3.522-4.921Z" transform="translate(-107.064 -129.186)"/>
          <rect id="Rectangle_1036" data-name="Rectangle 1036" class="cls-2" width="34.585" height="31.788" transform="translate(133.441 2.74)"/>
          <rect id="Rectangle_1037" data-name="Rectangle 1037" class="cls-2" width="34.585" height="31.788" transform="translate(133.441 34.546)"/>
          <path id="Path_3462" data-name="Path 3462" class="cls-15" d="M262.4,166.388a3.3,3.3,0,0,0-6.268-1.433,3.3,3.3,0,0,0-6.268,1.433c0,2.072,2.331,4.04,3.937,5.094a14.02,14.02,0,0,1,2.469,1.951,9.031,9.031,0,0,1,2.607-2.21,6.475,6.475,0,0,0,3.523-4.835Z" transform="translate(-114.381 -108.497)"/>
          <path id="Path_3463" data-name="Path 3463" class="cls-6" d="M272.466,156.388a3.3,3.3,0,0,0-6.268-1.433,3.3,3.3,0,0,0-6.268,1.433c0,2.072,2.331,4.04,3.937,5.18a14.022,14.022,0,0,1,2.469,1.951,9.031,9.031,0,0,1,2.607-2.21,6.475,6.475,0,0,0,3.523-4.921Z" transform="translate(-107.064 -115.764)"/>
          <rect id="Rectangle_1038" data-name="Rectangle 1038" class="cls-2" width="34.585" height="31.788" transform="translate(133.441 34.546)"/>
          <rect id="Rectangle_1039" data-name="Rectangle 1039" class="cls-2" width="34.585" height="31.788" transform="translate(98.856 -29.048)"/>
          <path id="Path_3464" data-name="Path 3464" class="cls-15" d="M242.366,129.578a3.3,3.3,0,0,0-6.268-1.433,3.3,3.3,0,0,0-6.268,1.433c0,2.072,2.331,4.04,3.937,5.094a14.021,14.021,0,0,1,2.469,1.951,9.031,9.031,0,0,1,2.607-2.21,6.51,6.51,0,0,0,3.522-4.835Z" transform="translate(-128.937 -135.246)"/>
          <path id="Path_3465" data-name="Path 3465" class="cls-15" d="M252.436,119.508a3.3,3.3,0,0,0-6.268-1.433,3.3,3.3,0,0,0-6.268,1.433c0,2.072,2.331,4.04,3.937,5.094a14.019,14.019,0,0,1,2.469,1.951,9.031,9.031,0,0,1,2.607-2.21,6.475,6.475,0,0,0,3.523-4.835Z" transform="translate(-121.619 -142.564)"/>
          <rect id="Rectangle_1040" data-name="Rectangle 1040" class="cls-2" width="34.585" height="31.788" transform="translate(98.856 -29.048)"/>
          <rect id="Rectangle_1041" data-name="Rectangle 1041" class="cls-2" width="34.585" height="31.788" transform="translate(98.856 2.74)"/>
          <path id="Path_3466" data-name="Path 3466" class="cls-15" d="M242.366,147.988a3.3,3.3,0,0,0-6.268-1.433,3.3,3.3,0,0,0-6.268,1.433c0,2.089,2.331,4.058,3.937,5.18a14.021,14.021,0,0,1,2.469,1.951,9.031,9.031,0,0,1,2.607-2.21,6.51,6.51,0,0,0,3.522-4.921Z" transform="translate(-128.937 -121.868)"/>
          <path id="Path_3467" data-name="Path 3467" class="cls-6" d="M252.436,137.918a3.3,3.3,0,0,0-6.268-1.433,3.3,3.3,0,0,0-6.268,1.433c0,2.089,2.331,4.058,3.937,5.18a14.019,14.019,0,0,1,2.469,1.951,9.031,9.031,0,0,1,2.607-2.21A6.51,6.51,0,0,0,252.436,137.918Z" transform="translate(-121.619 -129.186)"/>
          <rect id="Rectangle_1042" data-name="Rectangle 1042" class="cls-2" width="34.585" height="31.788" transform="translate(98.856 2.74)"/>
          <rect id="Rectangle_1043" data-name="Rectangle 1043" class="cls-2" width="34.585" height="31.788" transform="translate(98.856 34.546)"/>
          <path id="Path_3468" data-name="Path 3468" class="cls-15" d="M242.366,166.388a3.3,3.3,0,0,0-6.268-1.433,3.3,3.3,0,0,0-6.268,1.433c0,2.072,2.331,4.04,3.937,5.094a14.02,14.02,0,0,1,2.469,1.951,9.03,9.03,0,0,1,2.607-2.21,6.475,6.475,0,0,0,3.522-4.835Z" transform="translate(-128.937 -108.497)"/>
          <path id="Path_3469" data-name="Path 3469" class="cls-6" d="M252.436,156.388a3.3,3.3,0,0,0-6.268-1.433,3.3,3.3,0,0,0-6.268,1.433c0,2.072,2.331,4.04,3.937,5.18a14.017,14.017,0,0,1,2.469,1.951,9.032,9.032,0,0,1,2.607-2.21,6.475,6.475,0,0,0,3.522-4.921Z" transform="translate(-121.619 -115.764)"/>
          <rect id="Rectangle_1044" data-name="Rectangle 1044" class="cls-2" width="34.585" height="31.788" transform="translate(98.856 34.546)"/>
          <rect id="Rectangle_1045" data-name="Rectangle 1045" class="cls-2" width="34.585" height="31.788" transform="translate(64.27 -29.048)"/>
          <path id="Path_3470" data-name="Path 3470" class="cls-15" d="M222.336,129.578a3.3,3.3,0,0,0-6.268-1.433,3.3,3.3,0,0,0-6.268,1.433c0,2.072,2.331,4.04,3.937,5.094a14.017,14.017,0,0,1,2.469,1.951,9.03,9.03,0,0,1,2.573-2.193A6.509,6.509,0,0,0,222.336,129.578Z" transform="translate(-143.492 -135.246)"/>
          <path id="Path_3471" data-name="Path 3471" class="cls-15" d="M232.406,119.508a3.3,3.3,0,0,0-6.268-1.433,3.3,3.3,0,0,0-6.268,1.433c0,2.072,2.331,4.04,3.937,5.094a14.021,14.021,0,0,1,2.469,1.951,9.03,9.03,0,0,1,2.607-2.21,6.475,6.475,0,0,0,3.522-4.835Z" transform="translate(-136.174 -142.564)"/>
          <rect id="Rectangle_1046" data-name="Rectangle 1046" class="cls-2" width="34.585" height="31.788" transform="translate(64.27 -29.048)"/>
          <rect id="Rectangle_1047" data-name="Rectangle 1047" class="cls-2" width="34.585" height="31.788" transform="translate(64.27 2.74)"/>
          <path id="Path_3472" data-name="Path 3472" class="cls-15" d="M222.336,147.988a3.3,3.3,0,0,0-6.268-1.433,3.3,3.3,0,0,0-6.268,1.433c0,2.089,2.331,4.058,3.937,5.18a14.02,14.02,0,0,1,2.469,1.951,9.031,9.031,0,0,1,2.607-2.21,6.51,6.51,0,0,0,3.522-4.921Z" transform="translate(-143.492 -121.868)"/>
          <path id="Path_3473" data-name="Path 3473" class="cls-15" d="M232.406,137.918a3.3,3.3,0,0,0-6.268-1.433,3.3,3.3,0,0,0-6.268,1.433c0,2.089,2.331,4.058,3.937,5.18a14.02,14.02,0,0,1,2.469,1.951,9.032,9.032,0,0,1,2.607-2.21,6.509,6.509,0,0,0,3.522-4.921Z" transform="translate(-136.174 -129.186)"/>
          <rect id="Rectangle_1048" data-name="Rectangle 1048" class="cls-2" width="34.585" height="31.788" transform="translate(64.27 2.74)"/>
          <rect id="Rectangle_1049" data-name="Rectangle 1049" class="cls-2" width="34.585" height="31.788" transform="translate(64.27 34.546)"/>
          <path id="Path_3474" data-name="Path 3474" class="cls-15" d="M222.336,166.388a3.3,3.3,0,0,0-6.268-1.433,3.3,3.3,0,0,0-6.268,1.433c0,2.072,2.331,4.04,3.937,5.094a14.017,14.017,0,0,1,2.469,1.951,9.03,9.03,0,0,1,2.607-2.21,6.475,6.475,0,0,0,3.522-4.835Z" transform="translate(-143.492 -108.497)"/>
          <path id="Path_3475" data-name="Path 3475" class="cls-15" d="M232.406,156.388a3.3,3.3,0,0,0-6.268-1.433,3.3,3.3,0,0,0-6.268,1.433c0,2.072,2.331,4.04,3.937,5.18a14.02,14.02,0,0,1,2.469,1.951,9.03,9.03,0,0,1,2.607-2.21,6.475,6.475,0,0,0,3.522-4.921Z" transform="translate(-136.174 -115.764)"/>
          <rect id="Rectangle_1050" data-name="Rectangle 1050" class="cls-2" width="34.585" height="31.788" transform="translate(64.27 34.546)"/>
          <rect id="Rectangle_1051" data-name="Rectangle 1051" class="cls-2" width="34.585" height="31.788" transform="translate(29.685 -29.048)"/>
          <path id="Path_3476" data-name="Path 3476" class="cls-15" d="M202.276,129.578a3.3,3.3,0,0,0-6.268-1.433,3.3,3.3,0,0,0-6.268,1.433c0,2.072,2.331,4.04,3.937,5.094a14.018,14.018,0,0,1,2.469,1.951,9.03,9.03,0,0,1,2.676-2.193,6.509,6.509,0,0,0,3.453-4.852Z" transform="translate(-158.069 -135.246)"/>
          <path id="Path_3477" data-name="Path 3477" class="cls-15" d="M212.376,119.508a3.3,3.3,0,0,0-6.268-1.433,3.3,3.3,0,0,0-6.268,1.433c0,2.072,2.331,4.04,3.937,5.094a14.022,14.022,0,0,1,2.469,1.951,9.03,9.03,0,0,1,2.607-2.21,6.51,6.51,0,0,0,3.522-4.835Z" transform="translate(-150.73 -142.564)"/>
          <rect id="Rectangle_1052" data-name="Rectangle 1052" class="cls-2" width="34.585" height="31.788" transform="translate(29.685 -29.048)"/>
          <rect id="Rectangle_1053" data-name="Rectangle 1053" class="cls-2" width="34.585" height="31.788" transform="translate(29.685 2.74)"/>
          <path id="Path_3478" data-name="Path 3478" class="cls-6" d="M202.276,147.988a3.3,3.3,0,0,0-6.268-1.433,3.3,3.3,0,0,0-6.268,1.433c0,2.089,2.331,4.058,3.937,5.18a14.02,14.02,0,0,1,2.469,1.951,9.031,9.031,0,0,1,2.607-2.21,6.51,6.51,0,0,0,3.522-4.921Z" transform="translate(-158.069 -121.868)"/>
          <path id="Path_3479" data-name="Path 3479" class="cls-15" d="M212.376,137.918a3.3,3.3,0,0,0-6.268-1.433,3.3,3.3,0,0,0-6.268,1.433c0,2.089,2.331,4.058,3.937,5.18a14.021,14.021,0,0,1,2.469,1.951,9.031,9.031,0,0,1,2.607-2.21A6.544,6.544,0,0,0,212.376,137.918Z" transform="translate(-150.73 -129.186)"/>
          <rect id="Rectangle_1054" data-name="Rectangle 1054" class="cls-2" width="34.585" height="31.788" transform="translate(29.685 2.74)"/>
          <rect id="Rectangle_1055" data-name="Rectangle 1055" class="cls-2" width="34.585" height="31.788" transform="translate(29.685 34.546)"/>
          <path id="Path_3480" data-name="Path 3480" class="cls-15" d="M202.276,166.388a3.3,3.3,0,0,0-6.268-1.433,3.3,3.3,0,0,0-6.268,1.433c0,2.072,2.331,4.04,3.937,5.094a14.017,14.017,0,0,1,2.469,1.951,9.03,9.03,0,0,1,2.607-2.21,6.475,6.475,0,0,0,3.523-4.835Z" transform="translate(-158.069 -108.497)"/>
          <path id="Path_3481" data-name="Path 3481" class="cls-15" d="M212.376,156.388a3.3,3.3,0,0,0-6.268-1.433,3.3,3.3,0,0,0-6.268,1.433c0,2.072,2.331,4.04,3.937,5.18a14.019,14.019,0,0,1,2.469,1.951,9.03,9.03,0,0,1,2.607-2.21,6.509,6.509,0,0,0,3.522-4.921Z" transform="translate(-150.73 -115.764)"/>
          <rect id="Rectangle_1056" data-name="Rectangle 1056" class="cls-2" width="34.585" height="31.788" transform="translate(29.685 34.546)"/>
          <rect id="Rectangle_1057" data-name="Rectangle 1057" class="cls-2" width="34.585" height="31.788" transform="translate(-4.9 -29.048)"/>
          <path id="Path_3482" data-name="Path 3482" class="cls-15" d="M182.276,129.578a3.3,3.3,0,0,0-6.268-1.433,3.3,3.3,0,0,0-6.268,1.433c0,2.072,2.331,4.04,3.937,5.094a14.021,14.021,0,0,1,2.469,1.951,9.029,9.029,0,0,1,2.676-2.193,6.544,6.544,0,0,0,3.453-4.852Z" transform="translate(-172.603 -135.246)"/>
          <path id="Path_3483" data-name="Path 3483" class="cls-15" d="M192.346,119.508a3.3,3.3,0,0,0-6.268-1.433,3.3,3.3,0,0,0-6.268,1.433c0,2.072,2.331,4.04,3.937,5.094a14.019,14.019,0,0,1,2.469,1.951,9.03,9.03,0,0,1,2.607-2.21A6.51,6.51,0,0,0,192.346,119.508Z" transform="translate(-165.285 -142.564)"/>
          <rect id="Rectangle_1058" data-name="Rectangle 1058" class="cls-2" width="34.585" height="31.788" transform="translate(-4.9 -29.048)"/>
          <rect id="Rectangle_1059" data-name="Rectangle 1059" class="cls-2" width="34.585" height="31.788" transform="translate(-4.9 2.74)"/>
          <path id="Path_3484" data-name="Path 3484" class="cls-6" d="M182.276,147.988a3.3,3.3,0,0,0-6.268-1.433,3.3,3.3,0,0,0-6.268,1.433c0,2.089,2.331,4.058,3.937,5.18a14.021,14.021,0,0,1,2.469,1.951,9.031,9.031,0,0,1,2.607-2.21A6.544,6.544,0,0,0,182.276,147.988Z" transform="translate(-172.603 -121.868)"/>
          <path id="Path_3485" data-name="Path 3485" class="cls-6" d="M192.346,137.918a3.3,3.3,0,0,0-6.268-1.433,3.3,3.3,0,0,0-6.268,1.433c0,2.089,2.331,4.058,3.937,5.18a14.018,14.018,0,0,1,2.469,1.951,9.03,9.03,0,0,1,2.607-2.21A6.544,6.544,0,0,0,192.346,137.918Z" transform="translate(-165.285 -129.186)"/>
          <rect id="Rectangle_1060" data-name="Rectangle 1060" class="cls-2" width="34.585" height="31.788" transform="translate(-4.9 2.74)"/>
          <rect id="Rectangle_1061" data-name="Rectangle 1061" class="cls-2" width="34.585" height="31.788" transform="translate(-4.9 34.546)"/>
          <path id="Path_3486" data-name="Path 3486" class="cls-15" d="M182.276,166.388a3.3,3.3,0,0,0-6.268-1.433,3.3,3.3,0,0,0-6.268,1.433c0,2.072,2.331,4.04,3.937,5.094a14.02,14.02,0,0,1,2.469,1.951,9.03,9.03,0,0,1,2.607-2.21A6.509,6.509,0,0,0,182.276,166.388Z" transform="translate(-172.603 -108.497)"/>
          <path id="Path_3487" data-name="Path 3487" class="cls-6" d="M192.346,156.388a3.3,3.3,0,0,0-6.268-1.433,3.3,3.3,0,0,0-6.268,1.433c0,2.072,2.331,4.04,3.937,5.18a14.016,14.016,0,0,1,2.469,1.951,9.03,9.03,0,0,1,2.607-2.21A6.51,6.51,0,0,0,192.346,156.388Z" transform="translate(-165.285 -115.764)"/>
          <rect id="Rectangle_1062" data-name="Rectangle 1062" class="cls-2" width="34.585" height="31.788" transform="translate(-4.9 34.546)"/>
        </g>
      </g>
      <rect id="Rectangle_1065" data-name="Rectangle 1065" class="cls-16" width="181.871" height="37.987" transform="translate(80.668 50.157) rotate(-3.92)"/>
      <rect id="Rectangle_1066" data-name="Rectangle 1066" class="cls-20" width="36.92" height="219.254" transform="translate(154.286 45.138) rotate(-4.004)"/>
      <path id="Path_3488" data-name="Path 3488" class="cls-12" d="M238.636,214.372l-19.805-16.783-16.956,19.3L196.47,138l36.744-2.521Z" transform="translate(-72.511 -90.837)"/>
      <path id="Path_3489" data-name="Path 3489" class="cls-12" d="M192.58,115.265c-11.6,10.084-6.751,36.865,2.642,38.591s56.307-3.091,56.307-3.091S204.27,105.164,192.58,115.265Zm8.34,32.721c-6.993-.915-10.36-16.991-1.589-23.189s43.564,20.72,43.564,20.72S207.913,148.9,200.92,147.985Z" transform="translate(-80.276 -106.588)"/>
      <path id="Path_3490" data-name="Path 3490" class="cls-12" d="M277.622,110.549c12.967,8.409,11.724,35.587,2.642,38.54s-56.2,4.628-56.2,4.628S264.654,102.157,277.622,110.549Zm-3.8,33.567c6.8-1.865,7.995-18.251-1.589-23.189s-40.318,26.522-40.318,26.522S267.02,145.98,273.823,144.115Z" transform="translate(-52.462 -109.625)"/>
      <rect id="Rectangle_1067" data-name="Rectangle 1067" class="cls-20" width="22.294" height="12.255" rx="2.907" transform="translate(160.337 33.136) rotate(-4.004)"/>
      <path id="Path_3491" data-name="Path 3491" class="cls-1" d="M211.772,252.579s8.754,1.468,12.087.984,9.255-3.453,11.69,0a40.146,40.146,0,0,0,8.271,7.3s.967,2.435-3.453,2.435a14.573,14.573,0,0,1-8.288-3.453l12.173,9.739s-1.951,2.935-3.453,3.453-6.82-.984-6.82-.984a13.21,13.21,0,0,1-5.353,2.435c-2.935.5-5.37,1.951-7.3.984s-13.641-11.69-13.641-11.69Z" transform="translate(-64.365 -6.225)"/>
      <path id="Path_3492" data-name="Path 3492" class="cls-12" d="M158.224,198.1s-14.211,6.907-14.78,22.723,25.572,57.947,31.823,62.489,80.1,31.823,80.1,31.823l6.82-26.695-68.774-38.712-19.891-45.446" transform="translate(-111.051 -45.332)"/>
      <line id="Line_291" data-name="Line 291" class="cls-11" x1="8.392" y2="24.622" transform="translate(128.086 237.151)"/>
      <line id="Line_292" data-name="Line 292" class="cls-11" x1="5.767" y2="18.337" transform="translate(125.478 242.383)"/>
      <circle id="Ellipse_223" data-name="Ellipse 223" class="cls-11" cx="2.366" cy="2.366" r="2.366" transform="translate(136.477 261.773)"/>
    </g>
  </g>
</svg>
